<svg width="33" height="33" viewBox="0 0 33 33" fill="none" xmlns="http://www.w3.org/2000/svg">
<path d="M29.8332 6.72757V22.8209C29.8332 24.1009 28.7932 25.3009 27.5132 25.4609L27.0732 25.5143C24.1665 25.9009 19.6865 27.3809 17.1265 28.7942C16.7798 28.9942 16.2065 28.9942 15.8465 28.7942L15.7931 28.7676C13.2331 27.3676 8.76654 25.9009 5.87321 25.5143L5.48649 25.4609C4.20649 25.3009 3.1665 24.1009 3.1665 22.8209V6.71422C3.1665 5.12756 4.4598 3.92757 6.04647 4.0609C8.84647 4.28757 13.0865 5.70094 15.4598 7.18094L15.7931 7.38089C16.1798 7.62089 16.8199 7.62089 17.2065 7.38089L17.4332 7.23424C18.2732 6.71424 19.3398 6.19424 20.4998 5.72757V11.1676L23.1665 9.39424L25.8332 11.1676V4.20763C26.1932 4.14096 26.5399 4.10092 26.8599 4.07425H26.9399C28.5265 3.94092 29.8332 5.12757 29.8332 6.72757Z" stroke="#003366" stroke-width="2.2" stroke-linecap="round" stroke-linejoin="round"/>
<path d="M16.5 7.82031V27.8203" stroke="#003366" stroke-width="2.2" stroke-linecap="round" stroke-linejoin="round"/>
<path d="M25.8333 4.20703V11.167L23.1667 9.39364L20.5 11.167V5.72697C22.2467 5.03364 24.1933 4.4737 25.8333 4.20703Z" stroke="#003366" stroke-width="2.2" stroke-linecap="round" stroke-linejoin="round"/>
</svg>
