<svg width="33" height="33" viewBox="0 0 33 33" fill="none" xmlns="http://www.w3.org/2000/svg">
<path d="M12.7134 14.9927C12.5801 14.9793 12.4201 14.9793 12.2734 14.9927C9.10008 14.886 6.58008 12.286 6.58008 9.08602C6.58008 5.81935 9.22008 3.16602 12.5001 3.16602C15.7667 3.16602 18.4201 5.81935 18.4201 9.08602C18.4067 12.286 15.8867 14.886 12.7134 14.9927Z" stroke="#003366" stroke-width="2.2" stroke-linecap="round" stroke-linejoin="round"/>
<path d="M22.3799 5.83398C24.9665 5.83398 27.0465 7.92732 27.0465 10.5007C27.0465 13.0207 25.0465 15.074 22.5532 15.1673C22.4465 15.154 22.3265 15.154 22.2065 15.1673" stroke="#003366" stroke-width="2.2" stroke-linecap="round" stroke-linejoin="round"/>
<path d="M6.04646 19.914C2.8198 22.074 2.8198 25.594 6.04646 27.7407C9.71313 30.194 15.7265 30.194 19.3931 27.7407C22.6198 25.5807 22.6198 22.0607 19.3931 19.914C15.7398 17.474 9.72646 17.474 6.04646 19.914Z" stroke="#003366" stroke-width="2.2" stroke-linecap="round" stroke-linejoin="round"/>
<path d="M24.9531 27.166C25.9131 26.966 26.8198 26.5793 27.5665 26.006C29.6465 24.446 29.6465 21.8727 27.5665 20.3127C26.8331 19.7527 25.9398 19.3793 24.9931 19.166" stroke="#003366" stroke-width="2.2" stroke-linecap="round" stroke-linejoin="round"/>
</svg>
