<svg width="301" height="300" viewBox="0 0 301 300" fill="none" xmlns="http://www.w3.org/2000/svg">
<g clip-path="url(#clip0_17315_26030)">
<path d="M300.5 229.438H0.5V229.587H300.5V229.438Z" fill="#EBEBEB"/>
<path d="M270.441 239.096H250.567V239.246H270.441V239.096Z" fill="#EBEBEB"/>
<path d="M199.232 240.725H194.017V240.875H199.232V240.725Z" fill="#EBEBEB"/>
<path d="M249.966 233.523H238.451V233.673H249.966V233.523Z" fill="#EBEBEB"/>
<path d="M57.8914 234.533H31.9756V234.683H57.8914V234.533Z" fill="#EBEBEB"/>
<path d="M67.0332 234.533H63.2334V234.683H67.0332V234.533Z" fill="#EBEBEB"/>
<path d="M135.588 237.066H79.3828V237.216H135.588V237.066Z" fill="#EBEBEB"/>
<path d="M142.708 202.679H26.8486C24.9604 202.679 23.4238 201.143 23.4238 199.255V36.3955C23.4238 34.5073 24.9604 32.9707 26.8486 32.9707H142.708C144.596 32.9707 146.132 34.5073 146.132 36.3955V199.255C146.132 201.143 144.596 202.679 142.708 202.679ZM26.8486 33.1213C25.0426 33.1213 23.5738 34.5901 23.5738 36.3961V199.255C23.5738 201.061 25.0426 202.53 26.8486 202.53H142.708C144.513 202.53 145.982 201.061 145.982 199.255V36.3955C145.982 34.5901 144.513 33.1207 142.708 33.1207L26.8486 33.1213Z" fill="#EBEBEB"/>
<path d="M272.486 202.679H156.627C154.739 202.679 153.203 201.143 153.203 199.255V36.3955C153.203 34.5073 154.74 32.9707 156.627 32.9707H272.486C274.375 32.9707 275.911 34.5073 275.911 36.3955V199.255C275.912 201.143 274.375 202.679 272.486 202.679ZM156.627 33.1213C154.822 33.1213 153.353 34.5901 153.353 36.3961V199.255C153.353 201.061 154.822 202.53 156.627 202.53H272.486C274.292 202.53 275.761 201.061 275.761 199.255V36.3955C275.761 34.5901 274.292 33.1207 272.486 33.1207L156.627 33.1213Z" fill="#EBEBEB"/>
<path d="M174.314 104.436L256.982 104.436V50.2993L174.314 50.2993V104.436Z" fill="#E6E6E6"/>
<path d="M171.792 104.436L255.804 104.436V50.2993L171.792 50.2993V104.436Z" fill="#F0F0F0"/>
<path d="M174.314 115.059L256.982 115.059V104.434L174.314 104.434V115.059Z" fill="#E6E6E6"/>
<path d="M167.59 115.059L251.602 115.059V104.434L167.59 104.434V115.059Z" fill="#F0F0F0"/>
<path d="M252.272 100.904V53.8301L175.323 53.8301V100.904L252.272 100.904Z" fill="#FAFAFA"/>
<path d="M234.92 100.904L225.092 53.8301H209.756L219.584 100.904H234.92Z" fill="white"/>
<path d="M250.637 97.3898C250.777 97.3898 250.89 97.277 250.89 97.1378V56.129C250.89 55.9898 250.777 55.877 250.637 55.877C250.498 55.877 250.385 55.9898 250.385 56.129V97.1378C250.385 97.277 250.498 97.3898 250.637 97.3898Z" fill="#F0F0F0"/>
<path d="M216.29 100.904L206.462 53.8301H200.482L210.311 100.904H216.29Z" fill="white"/>
<path d="M175.771 100.904V53.8301H175.323V100.904H175.771Z" fill="#E6E6E6"/>
<path opacity="0.6" d="M170.957 59.1547H253.626L253.95 55.2031H171.282L170.957 59.1547Z" fill="#EBEBEB"/>
<path opacity="0.6" d="M170.957 65.6352H253.626L253.95 61.6836H171.282L170.957 65.6352Z" fill="#EBEBEB"/>
<path opacity="0.6" d="M170.957 72.1176H253.626L253.95 68.166H171.282L170.957 72.1176Z" fill="#EBEBEB"/>
<path opacity="0.6" d="M170.957 78.5981H253.626L253.95 74.6465H171.282L170.957 78.5981Z" fill="#EBEBEB"/>
<path opacity="0.6" d="M170.957 85.0786H253.626L253.95 81.127H171.282L170.957 85.0786Z" fill="#EBEBEB"/>
<path opacity="0.6" d="M170.957 91.561H253.626L253.95 87.6094H171.282L170.957 91.561Z" fill="#EBEBEB"/>
<path d="M245.113 190.066H227.779V193.484H245.113V190.066Z" fill="#E6E6E6"/>
<path d="M195.084 229.438H198.284V150.798H195.084V229.438Z" fill="#E6E6E6"/>
<path d="M184.001 193.484H227.778V190.067H184.001V193.484Z" fill="#F5F5F5"/>
<path d="M245.113 208.768H227.779V212.185H245.113V208.768Z" fill="#E6E6E6"/>
<path d="M184.001 212.186H227.778V208.768H184.001V212.186Z" fill="#F5F5F5"/>
<path d="M245.113 152.668H227.779V156.086H245.113V152.668Z" fill="#E6E6E6"/>
<path d="M184.001 156.084H227.778V152.666H184.001V156.084Z" fill="#F5F5F5"/>
<path d="M245.113 171.367H227.779V174.785H245.113V171.367Z" fill="#E6E6E6"/>
<path d="M184.001 174.785H227.778V171.368H184.001V174.785Z" fill="#F5F5F5"/>
<path d="M238.863 229.438H242.062V150.798H238.863V229.438Z" fill="#E6E6E6"/>
<path d="M224.579 229.438H227.779V150.798H224.579V229.438Z" fill="#F5F5F5"/>
<path d="M184.001 229.438H187.201V150.798H184.001V229.438Z" fill="#F5F5F5"/>
<path d="M39.7239 229.439H72.4707L72.4707 165.904H39.7239L39.7239 229.439Z" fill="#E6E6E6"/>
<path d="M48.468 229.441H39.7236V220.67H57.636L48.468 229.441Z" fill="#FAFAFA"/>
<path d="M129.009 229.439H161.756V165.904H129.009V229.439Z" fill="#E6E6E6"/>
<path d="M39.7232 226.422H136.641V165.905H39.7232L39.7232 226.422Z" fill="#FAFAFA"/>
<path d="M127.897 229.441H136.642V220.67H118.729L127.897 229.441Z" fill="#FAFAFA"/>
<path d="M46.5072 203.6H129.857V188.455H46.5072V203.6Z" fill="#F0F0F0"/>
<path d="M46.5072 221.98H129.857V206.836H46.5072V221.98Z" fill="#F0F0F0"/>
<path d="M62.3501 190.074H114.015C115.531 190.074 116.76 188.844 116.76 187.327V187.143H59.6045V187.327C59.6045 188.844 60.8339 190.074 62.3501 190.074Z" fill="#FAFAFA"/>
<path d="M46.5072 185.219H129.857V170.074H46.5072V185.219Z" fill="#F0F0F0"/>
<path d="M62.3501 171.693H114.015C115.531 171.693 116.76 170.463 116.76 168.947V168.762H59.6045V168.947C59.6045 170.463 60.8339 171.693 62.3501 171.693Z" fill="#FAFAFA"/>
<path d="M62.3501 208.456H114.015C115.531 208.456 116.76 207.226 116.76 205.71V205.525H59.6045V205.71C59.6045 207.226 60.8339 208.456 62.3501 208.456Z" fill="#FAFAFA"/>
<path d="M44.9408 104.436L127.609 104.436V50.2993L44.9408 50.2993V104.436Z" fill="#E6E6E6"/>
<path d="M42.4187 104.436L126.431 104.436V50.2993L42.4187 50.2993V104.436Z" fill="#F0F0F0"/>
<path d="M44.9408 115.059L127.609 115.059V104.434L44.9408 104.434V115.059Z" fill="#E6E6E6"/>
<path d="M38.2155 115.059L122.228 115.059V104.434L38.2155 104.434V115.059Z" fill="#F0F0F0"/>
<path d="M122.899 100.904L122.899 53.8301L45.95 53.8301L45.95 100.904L122.899 100.904Z" fill="#FAFAFA"/>
<path d="M105.547 100.904L95.7184 53.8301H80.3818L90.2104 100.904H105.547Z" fill="white"/>
<path d="M121.264 97.3898C121.404 97.3898 121.516 97.277 121.516 97.1378V56.129C121.516 55.9898 121.404 55.877 121.264 55.877C121.125 55.877 121.012 55.9898 121.012 56.129V97.1378C121.012 97.277 121.125 97.3898 121.264 97.3898Z" fill="#F0F0F0"/>
<path d="M86.916 100.904L77.0874 53.8301H71.1084L80.937 100.904H86.916Z" fill="white"/>
<path d="M46.3984 100.904L46.3984 53.8301H45.9502L45.9502 100.904H46.3984Z" fill="#E6E6E6"/>
<path opacity="0.6" d="M41.583 59.1547H124.252L124.577 55.2031H41.9082L41.583 59.1547Z" fill="#EBEBEB"/>
<path opacity="0.6" d="M41.583 61.3838H124.252L124.577 57.4316H41.9082L41.583 61.3838Z" fill="#EBEBEB"/>
<path opacity="0.6" d="M41.583 63.6137H124.252L124.577 59.6621H41.9082L41.583 63.6137Z" fill="#EBEBEB"/>
<path opacity="0.6" d="M41.583 65.8428H124.252L124.577 61.8906H41.9082L41.583 65.8428Z" fill="#EBEBEB"/>
<path opacity="0.6" d="M41.583 68.0727H124.252L124.577 64.1211H41.9082L41.583 68.0727Z" fill="#EBEBEB"/>
<path opacity="0.6" d="M41.583 70.3012H124.252L124.577 66.3496H41.9082L41.583 70.3012Z" fill="#EBEBEB"/>
<path d="M58.108 163.961H60.9658L60.9658 132.106H58.108L58.108 163.961Z" fill="#F5F5F5"/>
<path d="M58.4762 163.939H59.2832L59.2832 132.084H58.4762L58.4762 163.939Z" fill="#FAFAFA"/>
<path d="M59.6213 163.939H59.9375L59.9375 132.084H59.6213L59.6213 163.939Z" fill="#FAFAFA"/>
<path d="M48.958 165.902H70.1164C70.1164 164.43 68.923 163.236 67.4506 163.236H51.6238C50.1514 163.236 48.958 164.43 48.958 165.902Z" fill="#F0F0F0"/>
<path d="M54.4011 151.882C54.8535 151.882 55.2231 151.511 55.2231 151.06V130.174C55.2231 129.722 54.8529 129.352 54.4011 129.352C53.9487 129.352 53.5791 129.722 53.5791 130.174V151.06C53.5791 151.512 53.9487 151.882 54.4011 151.882Z" fill="#F0F0F0"/>
<path d="M46.7441 139.678H72.3293L69.3863 121.799H49.6871L46.7441 139.678Z" fill="#E0E0E0"/>
<path d="M150.5 256.537C214.75 256.537 266.834 253.495 266.834 249.743C266.834 245.991 214.75 242.949 150.5 242.949C86.2512 242.949 34.167 245.991 34.167 249.743C34.167 253.495 86.2512 256.537 150.5 256.537Z" fill="#F5F5F5"/>
<path d="M62.9647 121.416L62.3662 121.459L63.1627 132.524L63.7612 132.48L62.9647 121.416Z" fill="#BBBBBB"/>
<path d="M64.1834 138.189L63.585 138.232L63.885 142.395L64.4834 142.351L64.1834 138.189Z" fill="#BBBBBB"/>
<path d="M203.127 189.096H74.6318C71.7254 189.096 69.1766 186.718 68.9672 183.812L62.6534 96.1338C62.444 93.2274 64.6508 90.8496 67.5572 90.8496H196.052C198.958 90.8496 201.507 93.2274 201.717 96.1338L208.03 183.812C208.239 186.718 206.033 189.096 203.127 189.096Z" fill="#BBBBBB"/>
<path d="M203.619 189.096H75.124C72.2176 189.096 69.6688 186.718 69.4594 183.812L63.1456 96.1338C62.9362 93.2274 65.143 90.8496 68.0494 90.8496H196.544C199.451 90.8496 201.999 93.2274 202.209 96.1338L208.523 183.812C208.731 186.718 206.525 189.096 203.619 189.096Z" fill="#BBBBBB"/>
<path opacity="0.5" d="M203.619 189.096H75.124C72.2176 189.096 69.6688 186.718 69.4594 183.812L63.1456 96.1338C62.9362 93.2274 65.143 90.8496 68.0494 90.8496H196.544C199.451 90.8496 201.999 93.2274 202.209 96.1338L208.523 183.812C208.731 186.718 206.525 189.096 203.619 189.096Z" fill="white"/>
<path d="M196.735 93.4922H68.24C68.0948 93.4922 67.9514 93.4982 67.8098 93.5096C64.5254 93.7802 65.1962 98.7764 68.5112 98.7764H197.225C200.54 98.7764 200.491 93.7802 197.168 93.5096C197.025 93.4982 196.88 93.4922 196.735 93.4922Z" fill="#BBBBBB"/>
<path d="M71.5861 96.1352C71.6341 96.8042 71.1313 97.3466 70.4617 97.3466C69.7927 97.3466 69.2113 96.8042 69.1633 96.1352C69.1153 95.4662 69.6181 94.9238 70.2877 94.9238C70.9573 94.9238 71.5381 95.4656 71.5861 96.1352Z" fill="#FAFAFA"/>
<path d="M75.7072 96.1352C75.7552 96.8042 75.2524 97.3466 74.5828 97.3466C73.9138 97.3466 73.3324 96.8042 73.2844 96.1352C73.2364 95.4662 73.7392 94.9238 74.4088 94.9238C75.0778 94.9238 75.6592 95.4656 75.7072 96.1352Z" fill="#FAFAFA"/>
<path d="M79.8279 96.1352C79.8759 96.8042 79.3725 97.3466 78.7035 97.3466C78.0345 97.3466 77.4531 96.8042 77.4045 96.1352C77.3565 95.4662 77.8599 94.9238 78.5289 94.9238C79.1979 94.9238 79.7793 95.4656 79.8279 96.1352Z" fill="#FAFAFA"/>
<path d="M200.213 180.346H77.2708C76.213 180.346 75.2932 179.488 75.217 178.43L70.0246 106.326C69.9484 105.268 70.7446 104.41 71.8024 104.41H194.744C195.802 104.41 196.722 105.268 196.798 106.326L201.99 178.43C202.067 179.488 201.27 180.346 200.213 180.346Z" fill="white"/>
<path d="M148.419 152.879L146.418 125.088L140.353 121.438H123.671L125.935 152.879H148.419Z" fill="white"/>
<path d="M148.419 153.17H125.935C125.782 153.17 125.656 153.052 125.645 152.9L123.381 121.458C123.375 121.377 123.403 121.298 123.458 121.239C123.513 121.179 123.59 121.146 123.671 121.146H140.353C140.406 121.146 140.458 121.161 140.503 121.188L146.568 124.838C146.649 124.887 146.701 124.972 146.707 125.066L148.708 152.858C148.714 152.938 148.686 153.018 148.631 153.077C148.576 153.136 148.499 153.17 148.419 153.17ZM126.205 152.588H148.106L146.138 125.259L140.272 121.728H123.983L126.205 152.588Z" fill="#BBBBBB"/>
<path d="M146.418 125.088L140.354 121.438L142.58 126.273L146.418 125.088Z" fill="#EBEBEB"/>
<path d="M142.58 126.563C142.469 126.563 142.364 126.499 142.316 126.394L140.089 121.559C140.036 121.443 140.064 121.306 140.159 121.22C140.254 121.135 140.394 121.123 140.503 121.188L146.567 124.838C146.666 124.897 146.72 125.009 146.706 125.123C146.692 125.237 146.613 125.332 146.503 125.365L142.666 126.551C142.637 126.559 142.609 126.563 142.58 126.563ZM141.013 122.173L142.738 125.92L145.711 125.001L141.013 122.173Z" fill="#BBBBBB"/>
<path d="M133.082 135.602C133.132 136.304 132.605 136.872 131.903 136.872C131.201 136.872 130.592 136.304 130.541 135.602C130.491 134.901 131.018 134.332 131.72 134.332C132.421 134.332 133.031 134.901 133.082 135.602Z" fill="#BBBBBB"/>
<path d="M141.324 135.602C141.374 136.304 140.847 136.872 140.145 136.872C139.443 136.872 138.834 136.304 138.783 135.602C138.732 134.901 139.26 134.332 139.962 134.332C140.664 134.333 141.273 134.901 141.324 135.602Z" fill="#BBBBBB"/>
<path d="M143.649 143.841C143.497 143.841 143.37 143.724 143.359 143.571C143.212 141.529 140.009 139.867 136.219 139.867C133.708 139.867 131.454 140.614 130.335 141.815C129.838 142.35 129.608 142.926 129.651 143.529C129.663 143.689 129.542 143.828 129.382 143.84C129.221 143.85 129.082 143.731 129.071 143.57C129.016 142.811 129.306 142.067 129.909 141.419C131.134 140.102 133.551 139.285 136.219 139.285C140.376 139.285 143.767 141.149 143.939 143.528C143.95 143.689 143.83 143.828 143.67 143.839C143.662 143.841 143.655 143.841 143.649 143.841Z" fill="#BBBBBB"/>
<path d="M128.4 133.03C128.33 133.03 128.259 133.005 128.202 132.953C128.085 132.844 128.078 132.66 128.187 132.542L129.461 131.169C129.57 131.051 129.755 131.045 129.872 131.154C129.99 131.263 129.996 131.447 129.888 131.565L128.614 132.937C128.556 132.999 128.478 133.03 128.4 133.03Z" fill="#BBBBBB"/>
<path d="M143.051 133.03C142.98 133.03 142.909 133.005 142.852 132.952L141.381 131.58C141.263 131.47 141.257 131.286 141.366 131.169C141.475 131.051 141.66 131.045 141.777 131.154L143.249 132.527C143.367 132.636 143.373 132.82 143.263 132.938C143.206 132.999 143.129 133.03 143.051 133.03Z" fill="#BBBBBB"/>
<path d="M121.854 159.092H123.21L125.167 161.692L124.98 159.092H126.348L126.687 163.792H125.318L123.372 161.211L123.558 163.792H122.192L121.854 159.092Z" fill="#BBBBBB"/>
<path d="M127.301 161.445C127.246 160.678 127.416 160.081 127.814 159.653C128.21 159.226 128.79 159.012 129.553 159.012C130.335 159.012 130.953 159.222 131.406 159.642C131.86 160.062 132.114 160.65 132.168 161.406C132.208 161.955 132.148 162.406 131.988 162.758C131.829 163.109 131.582 163.383 131.246 163.578C130.911 163.774 130.482 163.872 129.961 163.872C129.431 163.872 128.986 163.787 128.627 163.619C128.267 163.45 127.967 163.182 127.724 162.817C127.482 162.452 127.341 161.995 127.301 161.445ZM128.754 161.452C128.788 161.927 128.901 162.267 129.092 162.474C129.283 162.682 129.53 162.785 129.834 162.785C130.146 162.785 130.38 162.684 130.536 162.48C130.693 162.278 130.752 161.913 130.714 161.387C130.682 160.945 130.569 160.622 130.376 160.418C130.183 160.214 129.933 160.112 129.628 160.112C129.335 160.112 129.108 160.215 128.945 160.422C128.783 160.631 128.72 160.973 128.754 161.452Z" fill="#BBBBBB"/>
<path d="M134.991 159.092H137.149C137.574 159.092 137.922 159.149 138.192 159.265C138.462 159.38 138.691 159.545 138.877 159.761C139.064 159.977 139.206 160.228 139.303 160.515C139.401 160.801 139.461 161.105 139.485 161.425C139.521 161.927 139.492 162.317 139.397 162.594C139.303 162.871 139.161 163.103 138.971 163.289C138.781 163.477 138.573 163.601 138.344 163.663C138.032 163.748 137.746 163.791 137.488 163.791H135.33L134.991 159.092ZM136.52 160.156L136.705 162.724H137.061C137.364 162.724 137.577 162.691 137.701 162.623C137.824 162.556 137.916 162.439 137.977 162.271C138.037 162.103 138.054 161.831 138.027 161.455C137.991 160.957 137.886 160.616 137.71 160.432C137.534 160.249 137.258 160.157 136.882 160.157H136.52V160.156Z" fill="#BBBBBB"/>
<path d="M142.969 163.016H141.32L141.147 163.792H139.664L141.092 159.092H142.676L144.78 163.792H143.259L142.969 163.016ZM142.594 162L141.954 160.31L141.562 162H142.594Z" fill="#BBBBBB"/>
<path d="M144.122 159.092H148.536L148.62 160.252H147.139L147.394 163.792H145.942L145.687 160.252H144.206L144.122 159.092Z" fill="#BBBBBB"/>
<path d="M151.919 163.016H150.27L150.097 163.792H148.614L150.042 159.092H151.626L153.73 163.792H152.209L151.919 163.016ZM151.545 162L150.904 160.31L150.513 162H151.545Z" fill="#BBBBBB"/>
<path d="M212.712 103.848C213.248 103.579 213.887 103.232 214.478 102.907C215.08 102.576 215.679 102.231 216.268 101.873C217.444 101.149 218.629 100.434 219.753 99.6395C222.022 98.0765 224.148 96.3419 226.061 94.4477C226.312 94.2185 226.525 93.9641 226.756 93.7217L227.098 93.3545L227.27 93.1709L227.356 93.0791C227.378 93.0551 227.373 93.0599 227.362 93.0743L227.343 93.1037C227.258 93.2639 227.329 93.2153 227.362 93.0605C227.402 92.9117 227.435 92.6687 227.446 92.4059C227.485 91.3163 227.27 89.9429 227.009 88.6151C226.475 85.9241 225.666 83.1563 224.867 80.4443L227.198 79.4219C228.658 82.0295 229.875 84.6929 230.866 87.5807C231.337 89.0435 231.77 90.5123 231.897 92.3165C231.92 92.7761 231.931 93.2591 231.847 93.8225C231.759 94.3769 231.619 95.0405 231.113 95.7929L231.013 95.9315L230.936 96.0323L230.843 96.1451L230.659 96.3695L230.288 96.8195C230.038 97.1159 229.801 97.4285 229.535 97.7063C227.466 100.004 225.164 102.033 222.707 103.797C221.485 104.691 220.235 105.539 218.938 106.311C218.291 106.703 217.637 107.078 216.971 107.442C216.298 107.817 215.657 108.143 214.891 108.502L212.712 103.848Z" fill="#7D400A"/>
<path d="M207.376 244.907C207.841 244.907 208.348 244.811 208.703 244.727C208.749 244.716 208.784 244.679 208.793 244.631C208.801 244.584 208.781 244.537 208.741 244.511C208.569 244.398 207.043 243.413 206.458 243.678C206.366 243.72 206.25 243.812 206.221 244.013C206.183 244.279 206.25 244.491 206.419 244.645C206.633 244.841 206.99 244.907 207.376 244.907ZM208.366 244.557C207.491 244.731 206.833 244.701 206.579 244.469C206.471 244.371 206.431 244.232 206.457 244.046C206.471 243.945 206.518 243.912 206.556 243.895C206.864 243.756 207.744 244.181 208.366 244.557Z" fill="#BBBBBB"/>
<path d="M208.675 244.731C208.696 244.731 208.717 244.725 208.735 244.714C208.772 244.693 208.795 244.654 208.795 244.611C208.795 244.55 208.788 243.103 208.242 242.619C208.096 242.491 207.927 242.437 207.738 242.46C207.439 242.496 207.359 242.684 207.337 242.792C207.223 243.358 208.137 244.443 208.617 244.714C208.635 244.725 208.655 244.731 208.675 244.731ZM207.82 242.693C207.918 242.693 208.005 242.727 208.084 242.797C208.41 243.086 208.522 243.898 208.549 244.38C208.071 243.999 207.502 243.184 207.571 242.839C207.582 242.782 207.615 242.715 207.766 242.697C207.784 242.694 207.802 242.693 207.82 242.693Z" fill="#BBBBBB"/>
<path d="M208.234 88.8398C207.649 91.8218 206.417 97.862 208.504 99.8522C208.504 99.8522 207.688 102.877 202.147 102.877C196.054 102.877 199.235 99.8528 199.235 99.8528C202.561 99.0584 202.475 96.5912 201.896 94.274L208.234 88.8398Z" fill="#7D400A"/>
<path d="M198.07 101.054C197.114 101.184 197.927 98.7065 198.316 98.4497C199.214 97.8563 210.827 97.0163 210.751 98.4257C210.703 99.0323 210.418 100.216 209.91 100.618C209.402 101.02 206.419 99.8051 198.07 101.054Z" fill="#838383"/>
<path d="M199.962 100.219C199.202 100.476 199.274 97.9792 199.533 97.6786C200.132 96.9838 209.531 94.5688 209.81 95.935C209.918 96.5248 209.969 97.7032 209.647 98.161C209.325 98.6182 206.563 97.8616 199.962 100.219Z" fill="#838383"/>
<path d="M196.465 83.4646C196.392 83.4688 196.317 83.4394 196.267 83.3776C195.595 82.5556 194.721 82.6396 194.713 82.6408C194.58 82.6546 194.464 82.5604 194.451 82.4296C194.436 82.2988 194.531 82.1812 194.662 82.1674C194.708 82.1626 195.802 82.0564 196.636 83.0758C196.719 83.1778 196.704 83.3278 196.602 83.4106C196.562 83.4442 196.514 83.4616 196.465 83.4646Z" fill="#838383"/>
<path d="M195.303 86.4004C195.303 86.4004 194.79 88.2046 194.118 89.1166C194.7 89.5612 195.583 89.245 195.583 89.245L195.303 86.4004Z" fill="#7E7E7E"/>
<path d="M195.595 85.6712C195.635 86.0744 195.453 86.4224 195.19 86.4488C194.926 86.4746 194.68 86.1686 194.64 85.7654C194.601 85.3622 194.782 85.0142 195.046 84.9878C195.31 84.962 195.556 85.268 195.595 85.6712Z" fill="#838383"/>
<path d="M195.166 84.9986L194.169 84.8145C194.169 84.8145 194.741 85.523 195.166 84.9986Z" fill="#838383"/>
<path d="M214.52 244.611H209.494L209.888 232.973H214.914L214.52 244.611Z" fill="#7D400A"/>
<path d="M209.096 244.029H214.742C214.948 244.029 215.114 244.172 215.143 244.372L215.786 248.839C215.853 249.303 215.455 249.741 214.981 249.733C213.012 249.7 212.063 249.584 209.581 249.584C208.053 249.584 205.821 249.742 203.712 249.742C201.649 249.742 201.49 247.656 202.369 247.468C206.307 246.621 206.929 245.452 208.256 244.338C208.495 244.137 208.796 244.029 209.096 244.029Z" fill="#838383"/>
<g opacity="0.2">
<path d="M214.915 232.975H209.887L209.687 238.974H214.715L214.915 232.975Z" fill="black"/>
</g>
<path d="M194.524 106.826C191.414 105.609 188.448 104.285 185.494 102.774C182.545 101.265 179.642 99.6575 176.852 97.5101C176.157 96.9635 175.47 96.3659 174.798 95.6681C174.631 95.4881 174.464 95.3213 174.299 95.1149C174.126 94.8977 173.996 94.7699 173.772 94.4363C173.366 93.8531 173.052 93.0701 172.969 92.2709C172.89 91.4711 173.034 90.7073 173.264 90.0983C173.493 89.4785 173.793 88.9727 174.108 88.5341C174.738 87.6557 175.437 87.0065 176.141 86.4221C177.547 85.2587 179.034 84.4127 180.523 83.6219C181.267 83.2271 182.025 82.8713 182.793 82.5437C183.565 82.2107 184.318 81.9011 185.137 81.6191L186.202 83.9309C183.585 85.5803 180.874 87.3935 178.881 89.4263C178.397 89.9297 177.973 90.4565 177.707 90.9203C177.421 91.3925 177.425 91.7459 177.473 91.7189C177.498 91.7189 177.488 91.7081 177.558 91.7777L177.797 92.0339C177.887 92.1413 178.013 92.2511 178.127 92.3615C178.598 92.8013 179.15 93.2429 179.746 93.6629C180.937 94.5107 182.249 95.3039 183.606 96.0449C184.959 96.7961 186.35 97.5149 187.767 98.1971C190.595 99.5513 193.526 100.855 196.403 102.045L194.524 106.826Z" fill="#7D400A"/>
<path d="M187.681 82.2917L188.512 80.4893L184.734 79.1777C184.734 79.1777 183.558 82.7195 184.96 84.3539C186.154 84.1625 187.175 83.3897 187.681 82.2917Z" fill="#7D400A"/>
<path d="M188.512 76.5933L185.492 75.7227L184.734 79.1775L188.512 80.4897V76.5933Z" fill="#7D400A"/>
<path d="M227.509 80.6632L227.95 76.4512L224.057 77.3662C224.057 77.3662 224 81.3142 226.059 81.9436L227.509 80.6632Z" fill="#7D400A"/>
<path d="M226.074 73.5039L223.538 74.6883L224.056 77.3673L227.949 76.4523L226.074 73.5039Z" fill="#7D400A"/>
<path d="M209.024 82.9531C209.207 87.9373 209.391 90.0433 207.139 92.8327C203.751 97.0279 197.588 96.1627 195.92 91.3333C194.418 86.9863 194.371 79.5655 199.027 77.1163C203.614 74.7043 208.841 77.9683 209.024 82.9531Z" fill="#7D400A"/>
<path d="M206.852 92.8234C211.745 90.709 214.963 86.2504 213.605 79.279C212.305 72.6094 207.802 71.9506 205.942 73.3342C204.082 74.7178 199.446 72.6556 196.664 74.9968C191.843 79.0534 196.401 83.4268 198.775 86.0182C200.193 88.933 202.051 94.8982 206.852 92.8234Z" fill="#838383"/>
<path d="M204.82 78.0822C206.472 80.4732 209.638 81.1482 211.894 79.59C214.15 78.0324 214.641 74.8314 212.989 72.4404C211.338 70.0494 208.171 69.3744 205.915 70.9326C203.659 72.4902 203.169 75.6912 204.82 78.0822Z" fill="#BBBBBB"/>
<path d="M206.09 73.8007C205.384 69.7819 209.187 66.6829 214.272 68.1805C219.357 69.6781 216.667 74.1859 215.624 77.7859C214.582 81.3859 217.318 84.8149 218.462 82.0729C219.605 79.3315 217.683 78.4849 217.683 78.4849C217.683 78.4849 223.082 79.8847 218.066 85.9711C213.05 92.0581 208.51 85.3369 209.738 81.3703C210.73 78.1651 206.758 77.5993 206.09 73.8007Z" fill="#838383"/>
<path d="M201.008 75.3197C198.687 74.1089 194.756 73.1297 192.518 76.8935C191.46 78.6731 191.87 81.0869 191.87 81.0869L198.703 81.5417L201.008 75.3197Z" fill="#838383"/>
<path d="M191.066 79.9064C191.063 79.9064 191.06 79.9064 191.057 79.9058C190.974 79.901 190.911 79.8296 190.916 79.7468C190.922 79.6448 191.088 77.231 192.545 75.7166C196.066 72.0578 200.195 75.0926 201.376 76.1102C201.439 76.1642 201.446 76.259 201.392 76.322C201.337 76.385 201.243 76.3916 201.18 76.3376C200.049 75.3638 196.1 72.4556 192.761 75.9248C191.381 77.3582 191.217 79.7414 191.215 79.7654C191.211 79.8446 191.145 79.9064 191.066 79.9064Z" fill="#838383"/>
<path d="M199.611 85.8194C199.604 86.7902 199.169 87.7406 198.618 88.3856C197.789 89.3552 196.838 88.8776 196.621 87.8024C196.424 86.8346 196.619 85.1642 197.667 84.5786C198.699 84.002 199.619 84.7094 199.611 85.8194Z" fill="#7D400A"/>
<path d="M198.531 131.473C198.531 131.473 198.852 166.359 201.878 185.8C204.322 201.502 208.846 237.813 208.846 237.813H215.699C215.699 237.813 216.369 202.759 215.128 187.228C211.988 147.929 220.09 140.582 213.552 131.473H198.531Z" fill="#838383"/>
<path opacity="0.1" d="M198.531 131.473C198.531 131.473 198.852 166.359 201.878 185.8C204.322 201.502 208.846 237.813 208.846 237.813H215.699C215.699 237.813 216.369 202.759 215.128 187.228C211.988 147.929 220.09 140.582 213.552 131.473H198.531Z" fill="white"/>
<path opacity="0.3" d="M202.133 147.3C204.539 157.83 202.619 174.414 201.305 181.716C199.913 170.628 199.211 156.258 198.863 145.728C200.105 143.712 201.281 143.58 202.133 147.3Z" fill="black"/>
<path d="M207.908 237.949H216.638L217.096 234.887L207.858 234.574L207.908 237.949Z" fill="#BBBBBB"/>
<path d="M210.399 102.025C211.22 100.393 215.634 99.3656 218.047 99.3692L219.853 107.388C219.853 107.388 215.046 114.522 213.047 113.766C210.685 112.873 208.64 105.523 210.399 102.025Z" fill="#BBBBBB"/>
<path opacity="0.4" d="M210.399 102.025C211.22 100.393 215.634 99.3656 218.047 99.3692L219.853 107.388C219.853 107.388 215.046 114.522 213.047 113.766C210.685 112.873 208.64 105.523 210.399 102.025Z" fill="black"/>
<path d="M205.312 235.987C205.333 235.952 205.335 235.907 205.315 235.87C205.292 235.825 205.243 235.8 205.192 235.808C204.94 235.846 202.719 236.199 202.419 236.833C202.361 236.956 202.369 237.085 202.443 237.208C202.565 237.412 202.738 237.528 202.957 237.55C203.685 237.625 204.736 236.615 205.298 236.007C205.303 236 205.308 235.994 205.312 235.987ZM202.647 236.91C202.852 236.573 204.001 236.263 204.877 236.101C204.086 236.906 203.389 237.354 202.981 237.312C202.838 237.297 202.729 237.223 202.646 237.085C202.614 237.031 202.61 236.985 202.634 236.934C202.638 236.926 202.642 236.917 202.647 236.91Z" fill="#BBBBBB"/>
<path d="M205.312 235.987C205.316 235.98 205.32 235.972 205.322 235.963C205.336 235.924 205.327 235.879 205.3 235.847C205.262 235.804 204.373 234.778 203.552 234.725C203.301 234.709 203.081 234.783 202.898 234.947C202.652 235.168 202.673 235.36 202.735 235.481C202.994 235.996 204.59 236.176 205.234 236.042C205.267 236.035 205.294 236.015 205.312 235.987ZM202.963 235.232C202.981 235.201 203.011 235.165 203.057 235.124C203.192 235.003 203.35 234.95 203.537 234.962C204.076 234.998 204.688 235.555 204.967 235.839C204.256 235.899 203.103 235.683 202.947 235.374C202.938 235.355 202.915 235.31 202.963 235.232Z" fill="#BBBBBB"/>
<path d="M210.549 233.859L205.953 235.901L203.904 231.638L201.228 226.055L200.914 225.406L205.505 223.361L205.86 224.092L208.455 229.498L210.549 233.859Z" fill="#7D400A"/>
<path opacity="0.2" d="M208.455 229.498L203.904 231.637L201.228 226.055L205.86 224.092L208.455 229.498Z" fill="black"/>
<path d="M193.141 131.473C193.141 131.473 178.457 167.974 182.437 185.162C186.034 200.696 201.94 230.114 201.94 230.114L208.09 227.027C208.09 227.027 198.257 191.515 197.19 183.8C195.115 168.789 208.456 147.6 208.456 131.473H193.141Z" fill="#838383"/>
<path opacity="0.1" d="M193.141 131.473C193.141 131.473 178.457 167.974 182.437 185.162C186.034 200.696 201.94 230.114 201.94 230.114L208.09 227.027C208.09 227.027 198.257 191.515 197.19 183.8C195.115 168.789 208.456 147.6 208.456 131.473H193.141Z" fill="white"/>
<path d="M205.132 235.261L209.697 231.938C209.863 231.817 210.082 231.834 210.223 231.979L213.372 235.213C213.699 235.548 213.634 236.137 213.247 236.41C211.635 237.541 210.8 238.006 208.793 239.467C207.558 240.365 205.096 242.353 203.391 243.595C201.723 244.808 200.367 243.215 200.967 242.546C203.653 239.543 204.219 237.686 204.636 236.005C204.711 235.702 204.889 235.438 205.132 235.261Z" fill="#838383"/>
<path d="M201.543 231.417L209.482 227.785L208.463 224.551L199.962 228.428L201.543 231.417Z" fill="#BBBBBB"/>
<path d="M197.038 101.616C196.38 99.9111 190.644 98.0415 187.767 97.3887L186.503 106.849C186.503 106.849 191.202 113.602 193.265 113.044C195.701 112.384 198.45 105.268 197.038 101.616Z" fill="#BBBBBB"/>
<path opacity="0.4" d="M197.038 101.616C196.38 99.9111 190.644 98.0415 187.767 97.3887L186.503 106.849C186.503 106.849 191.202 113.602 193.265 113.044C195.701 112.384 198.45 105.268 197.038 101.616Z" fill="black"/>
<path d="M190.739 101.139C190.739 101.139 188.345 101.982 193.141 131.472C201.24 131.472 209.612 131.472 213.552 131.472C213.21 123.164 213.2 118.042 217.17 100.993C217.17 100.993 212.894 100.063 208.503 99.8514C205.068 99.6858 202.254 99.576 199.234 99.852C195.254 100.215 190.739 101.139 190.739 101.139Z" fill="#BBBBBB"/>
<path opacity="0.4" d="M190.739 101.139C190.739 101.139 188.345 101.982 193.141 131.472C201.24 131.472 209.612 131.472 213.552 131.472C213.21 123.164 213.2 118.042 217.17 100.993C217.17 100.993 212.894 100.063 208.503 99.8514C205.068 99.6858 202.254 99.576 199.234 99.852C195.254 100.215 190.739 101.139 190.739 101.139Z" fill="black"/>
<path d="M213.858 130.275L214.778 132.102C214.85 132.243 214.682 132.388 214.446 132.388H193.04C192.856 132.388 192.703 132.298 192.692 132.182L192.508 130.355C192.495 130.228 192.655 130.121 192.856 130.121H213.526C213.677 130.122 213.812 130.183 213.858 130.275Z" fill="#BBBBBB"/>
<path opacity="0.3" d="M213.858 130.275L214.778 132.102C214.85 132.243 214.682 132.388 214.446 132.388H193.04C192.856 132.388 192.703 132.298 192.692 132.182L192.508 130.355C192.495 130.228 192.655 130.121 192.856 130.121H213.526C213.677 130.122 213.812 130.183 213.858 130.275Z" fill="white"/>
<path d="M211.082 132.587H211.636C211.746 132.587 211.83 132.53 211.822 132.461L211.563 130.087C211.555 130.017 211.459 129.961 211.348 129.961H210.795C210.684 129.961 210.6 130.018 210.608 130.087L210.868 132.461C210.876 132.53 210.972 132.587 211.082 132.587Z" fill="#838383"/>
<path d="M197.664 132.587H198.218C198.328 132.587 198.412 132.53 198.404 132.461L198.145 130.087C198.137 130.017 198.041 129.961 197.93 129.961H197.377C197.266 129.961 197.182 130.018 197.19 130.087L197.45 132.461C197.457 132.53 197.554 132.587 197.664 132.587Z" fill="#838383"/>
</g>
<defs>
<clipPath id="clip0_17315_26030">
<rect width="300" height="300" fill="white" transform="translate(0.5)"/>
</clipPath>
</defs>
</svg>
