<svg width="300" height="300" viewBox="0 0 300 300" fill="none" xmlns="http://www.w3.org/2000/svg">
<path d="M300 229.438H0V229.587H300V229.438Z" fill="#EBEBEB"/>
<path d="M269.941 239.096H250.067V239.246H269.941V239.096Z" fill="#EBEBEB"/>
<path d="M198.732 240.725H193.517V240.875H198.732V240.725Z" fill="#EBEBEB"/>
<path d="M249.466 233.523H237.951V233.673H249.466V233.523Z" fill="#EBEBEB"/>
<path d="M57.3914 234.533H31.4756V234.683H57.3914V234.533Z" fill="#EBEBEB"/>
<path d="M66.5332 234.533H62.7334V234.683H66.5332V234.533Z" fill="#EBEBEB"/>
<path d="M135.088 237.066H78.8828V237.216H135.088V237.066Z" fill="#EBEBEB"/>
<path d="M142.208 202.679H26.3486C24.4604 202.679 22.9238 201.143 22.9238 199.255V36.3955C22.9238 34.5073 24.4604 32.9707 26.3486 32.9707H142.208C144.096 32.9707 145.632 34.5073 145.632 36.3955V199.255C145.632 201.143 144.096 202.679 142.208 202.679ZM26.3486 33.1213C24.5426 33.1213 23.0738 34.5901 23.0738 36.3961V199.255C23.0738 201.061 24.5426 202.53 26.3486 202.53H142.208C144.013 202.53 145.482 201.061 145.482 199.255V36.3955C145.482 34.5901 144.013 33.1207 142.208 33.1207L26.3486 33.1213Z" fill="#EBEBEB"/>
<path d="M271.986 202.679H156.127C154.239 202.679 152.703 201.143 152.703 199.255V36.3955C152.703 34.5073 154.24 32.9707 156.127 32.9707H271.986C273.875 32.9707 275.411 34.5073 275.411 36.3955V199.255C275.412 201.143 273.875 202.679 271.986 202.679ZM156.127 33.1213C154.322 33.1213 152.853 34.5901 152.853 36.3961V199.255C152.853 201.061 154.322 202.53 156.127 202.53H271.986C273.792 202.53 275.261 201.061 275.261 199.255V36.3955C275.261 34.5901 273.792 33.1207 271.986 33.1207L156.127 33.1213Z" fill="#EBEBEB"/>
<path d="M173.814 104.436L256.482 104.436V50.2993L173.814 50.2993V104.436Z" fill="#E6E6E6"/>
<path d="M171.292 104.436L255.304 104.436V50.2993L171.292 50.2993V104.436Z" fill="#F0F0F0"/>
<path d="M173.814 115.059L256.482 115.059V104.434L173.814 104.434V115.059Z" fill="#E6E6E6"/>
<path d="M167.09 115.059L251.102 115.059V104.434L167.09 104.434V115.059Z" fill="#F0F0F0"/>
<path d="M251.772 100.904V53.8301L174.823 53.8301V100.904L251.772 100.904Z" fill="#FAFAFA"/>
<path d="M234.42 100.904L224.592 53.8301H209.256L219.084 100.904H234.42Z" fill="white"/>
<path d="M250.137 97.3898C250.277 97.3898 250.39 97.277 250.39 97.1378V56.129C250.39 55.9898 250.277 55.877 250.137 55.877C249.998 55.877 249.885 55.9898 249.885 56.129V97.1378C249.885 97.277 249.998 97.3898 250.137 97.3898Z" fill="#F0F0F0"/>
<path d="M215.79 100.904L205.962 53.8301H199.982L209.811 100.904H215.79Z" fill="white"/>
<path d="M175.271 100.904V53.8301H174.823V100.904H175.271Z" fill="#E6E6E6"/>
<path opacity="0.6" d="M170.457 59.1547H253.126L253.45 55.2031H170.782L170.457 59.1547Z" fill="#EBEBEB"/>
<path opacity="0.6" d="M170.457 65.6352H253.126L253.45 61.6836H170.782L170.457 65.6352Z" fill="#EBEBEB"/>
<path opacity="0.6" d="M170.457 72.1176H253.126L253.45 68.166H170.782L170.457 72.1176Z" fill="#EBEBEB"/>
<path opacity="0.6" d="M170.457 78.5981H253.126L253.45 74.6465H170.782L170.457 78.5981Z" fill="#EBEBEB"/>
<path opacity="0.6" d="M170.457 85.0786H253.126L253.45 81.127H170.782L170.457 85.0786Z" fill="#EBEBEB"/>
<path opacity="0.6" d="M170.457 91.561H253.126L253.45 87.6094H170.782L170.457 91.561Z" fill="#EBEBEB"/>
<path d="M244.613 190.066H227.279V193.484H244.613V190.066Z" fill="#E6E6E6"/>
<path d="M194.584 229.438H197.784V150.798H194.584V229.438Z" fill="#E6E6E6"/>
<path d="M183.501 193.484H227.278V190.067H183.501V193.484Z" fill="#F5F5F5"/>
<path d="M244.613 208.768H227.279V212.185H244.613V208.768Z" fill="#E6E6E6"/>
<path d="M183.501 212.186H227.278V208.768H183.501V212.186Z" fill="#F5F5F5"/>
<path d="M244.613 152.668H227.279V156.086H244.613V152.668Z" fill="#E6E6E6"/>
<path d="M183.501 156.084H227.278V152.666H183.501V156.084Z" fill="#F5F5F5"/>
<path d="M244.613 171.367H227.279V174.785H244.613V171.367Z" fill="#E6E6E6"/>
<path d="M183.501 174.785H227.278V171.368H183.501V174.785Z" fill="#F5F5F5"/>
<path d="M238.363 229.438H241.562V150.798H238.363V229.438Z" fill="#E6E6E6"/>
<path d="M224.079 229.438H227.279V150.798H224.079V229.438Z" fill="#F5F5F5"/>
<path d="M183.501 229.438H186.701V150.798H183.501V229.438Z" fill="#F5F5F5"/>
<path d="M39.2239 229.439H71.9707L71.9707 165.904H39.2239L39.2239 229.439Z" fill="#E6E6E6"/>
<path d="M47.968 229.441H39.2236V220.67H57.136L47.968 229.441Z" fill="#FAFAFA"/>
<path d="M128.509 229.439H161.256V165.904H128.509V229.439Z" fill="#E6E6E6"/>
<path d="M39.2232 226.422H136.141V165.905H39.2232L39.2232 226.422Z" fill="#FAFAFA"/>
<path d="M127.397 229.441H136.142V220.67H118.229L127.397 229.441Z" fill="#FAFAFA"/>
<path d="M46.0072 203.6H129.357V188.455H46.0072V203.6Z" fill="#F0F0F0"/>
<path d="M46.0072 221.98H129.357V206.836H46.0072V221.98Z" fill="#F0F0F0"/>
<path d="M61.8501 190.074H113.515C115.031 190.074 116.26 188.844 116.26 187.327V187.143H59.1045V187.327C59.1045 188.844 60.3339 190.074 61.8501 190.074Z" fill="#FAFAFA"/>
<path d="M46.0072 185.219H129.357V170.074H46.0072V185.219Z" fill="#F0F0F0"/>
<path d="M61.8501 171.693H113.515C115.031 171.693 116.26 170.463 116.26 168.947V168.762H59.1045V168.947C59.1045 170.463 60.3339 171.693 61.8501 171.693Z" fill="#FAFAFA"/>
<path d="M61.8501 208.456H113.515C115.031 208.456 116.26 207.226 116.26 205.71V205.525H59.1045V205.71C59.1045 207.226 60.3339 208.456 61.8501 208.456Z" fill="#FAFAFA"/>
<path d="M44.4408 104.436L127.109 104.436V50.2993L44.4408 50.2993V104.436Z" fill="#E6E6E6"/>
<path d="M41.9187 104.436L125.931 104.436V50.2993L41.9187 50.2993V104.436Z" fill="#F0F0F0"/>
<path d="M44.4408 115.059L127.109 115.059V104.434L44.4408 104.434V115.059Z" fill="#E6E6E6"/>
<path d="M37.7155 115.059L121.728 115.059V104.434L37.7155 104.434V115.059Z" fill="#F0F0F0"/>
<path d="M122.399 100.904L122.399 53.8301L45.45 53.8301L45.45 100.904L122.399 100.904Z" fill="#FAFAFA"/>
<path d="M105.047 100.904L95.2184 53.8301H79.8818L89.7104 100.904H105.047Z" fill="white"/>
<path d="M120.764 97.3898C120.904 97.3898 121.016 97.277 121.016 97.1378V56.129C121.016 55.9898 120.904 55.877 120.764 55.877C120.625 55.877 120.512 55.9898 120.512 56.129V97.1378C120.512 97.277 120.625 97.3898 120.764 97.3898Z" fill="#F0F0F0"/>
<path d="M86.416 100.904L76.5874 53.8301H70.6084L80.437 100.904H86.416Z" fill="white"/>
<path d="M45.8984 100.904L45.8984 53.8301H45.4502L45.4502 100.904H45.8984Z" fill="#E6E6E6"/>
<path opacity="0.6" d="M41.083 59.1547H123.752L124.077 55.2031H41.4082L41.083 59.1547Z" fill="#EBEBEB"/>
<path opacity="0.6" d="M41.083 61.3838H123.752L124.077 57.4316H41.4082L41.083 61.3838Z" fill="#EBEBEB"/>
<path opacity="0.6" d="M41.083 63.6137H123.752L124.077 59.6621H41.4082L41.083 63.6137Z" fill="#EBEBEB"/>
<path opacity="0.6" d="M41.083 65.8428H123.752L124.077 61.8906H41.4082L41.083 65.8428Z" fill="#EBEBEB"/>
<path opacity="0.6" d="M41.083 68.0727H123.752L124.077 64.1211H41.4082L41.083 68.0727Z" fill="#EBEBEB"/>
<path opacity="0.6" d="M41.083 70.3012H123.752L124.077 66.3496H41.4082L41.083 70.3012Z" fill="#EBEBEB"/>
<path d="M57.608 163.961H60.4658L60.4658 132.106H57.608L57.608 163.961Z" fill="#F5F5F5"/>
<path d="M57.9762 163.939H58.7832L58.7832 132.084H57.9762L57.9762 163.939Z" fill="#FAFAFA"/>
<path d="M59.1213 163.939H59.4375L59.4375 132.084H59.1213L59.1213 163.939Z" fill="#FAFAFA"/>
<path d="M48.458 165.902H69.6164C69.6164 164.43 68.423 163.236 66.9506 163.236H51.1238C49.6514 163.236 48.458 164.43 48.458 165.902Z" fill="#F0F0F0"/>
<path d="M53.9011 151.882C54.3535 151.882 54.7231 151.511 54.7231 151.06V130.174C54.7231 129.722 54.3529 129.352 53.9011 129.352C53.4487 129.352 53.0791 129.722 53.0791 130.174V151.06C53.0791 151.512 53.4487 151.882 53.9011 151.882Z" fill="#F0F0F0"/>
<path d="M46.2441 139.678H71.8293L68.8863 121.799H49.1871L46.2441 139.678Z" fill="#E0E0E0"/>
<path d="M150 256.537C214.25 256.537 266.334 253.495 266.334 249.743C266.334 245.991 214.25 242.949 150 242.949C85.7512 242.949 33.667 245.991 33.667 249.743C33.667 253.495 85.7512 256.537 150 256.537Z" fill="#F5F5F5"/>
<path d="M62.4647 121.416L61.8662 121.459L62.6627 132.524L63.2612 132.48L62.4647 121.416Z" fill="#BBBBBB"/>
<path d="M63.6834 138.189L63.085 138.232L63.385 142.395L63.9834 142.351L63.6834 138.189Z" fill="#BBBBBB"/>
<path d="M202.627 189.096H74.1318C71.2254 189.096 68.6766 186.718 68.4672 183.812L62.1534 96.1338C61.944 93.2274 64.1508 90.8496 67.0572 90.8496H195.552C198.458 90.8496 201.007 93.2274 201.217 96.1338L207.53 183.812C207.739 186.718 205.533 189.096 202.627 189.096Z" fill="#BBBBBB"/>
<path d="M203.119 189.096H74.624C71.7176 189.096 69.1688 186.718 68.9594 183.812L62.6456 96.1338C62.4362 93.2274 64.643 90.8496 67.5494 90.8496H196.044C198.951 90.8496 201.499 93.2274 201.709 96.1338L208.023 183.812C208.231 186.718 206.025 189.096 203.119 189.096Z" fill="#BBBBBB"/>
<path opacity="0.5" d="M203.119 189.096H74.624C71.7176 189.096 69.1688 186.718 68.9594 183.812L62.6456 96.1338C62.4362 93.2274 64.643 90.8496 67.5494 90.8496H196.044C198.951 90.8496 201.499 93.2274 201.709 96.1338L208.023 183.812C208.231 186.718 206.025 189.096 203.119 189.096Z" fill="white"/>
<path d="M196.235 93.4922H67.74C67.5948 93.4922 67.4514 93.4982 67.3098 93.5096C64.0254 93.7802 64.6962 98.7764 68.0112 98.7764H196.725C200.04 98.7764 199.991 93.7802 196.668 93.5096C196.525 93.4982 196.38 93.4922 196.235 93.4922Z" fill="#BBBBBB"/>
<path d="M71.0861 96.1352C71.1341 96.8042 70.6313 97.3466 69.9617 97.3466C69.2927 97.3466 68.7113 96.8042 68.6633 96.1352C68.6153 95.4662 69.1181 94.9238 69.7877 94.9238C70.4573 94.9238 71.0381 95.4656 71.0861 96.1352Z" fill="#FAFAFA"/>
<path d="M75.2072 96.1352C75.2552 96.8042 74.7524 97.3466 74.0828 97.3466C73.4138 97.3466 72.8324 96.8042 72.7844 96.1352C72.7364 95.4662 73.2392 94.9238 73.9088 94.9238C74.5778 94.9238 75.1592 95.4656 75.2072 96.1352Z" fill="#FAFAFA"/>
<path d="M79.3279 96.1352C79.3759 96.8042 78.8725 97.3466 78.2035 97.3466C77.5345 97.3466 76.9531 96.8042 76.9045 96.1352C76.8565 95.4662 77.3599 94.9238 78.0289 94.9238C78.6979 94.9238 79.2793 95.4656 79.3279 96.1352Z" fill="#FAFAFA"/>
<path d="M199.713 180.346H76.7708C75.713 180.346 74.7932 179.488 74.717 178.43L69.5246 106.326C69.4484 105.268 70.2446 104.41 71.3024 104.41H194.244C195.302 104.41 196.222 105.268 196.298 106.326L201.49 178.43C201.567 179.488 200.77 180.346 199.713 180.346Z" fill="white"/>
<path d="M147.919 152.879L145.918 125.088L139.853 121.438H123.171L125.435 152.879H147.919Z" fill="white"/>
<path d="M147.919 153.17H125.435C125.282 153.17 125.156 153.052 125.145 152.9L122.881 121.458C122.875 121.377 122.903 121.298 122.958 121.239C123.013 121.179 123.09 121.146 123.171 121.146H139.853C139.906 121.146 139.958 121.161 140.003 121.188L146.068 124.838C146.149 124.887 146.201 124.972 146.207 125.066L148.208 152.858C148.214 152.938 148.186 153.018 148.131 153.077C148.076 153.136 147.999 153.17 147.919 153.17ZM125.705 152.588H147.606L145.638 125.259L139.772 121.728H123.483L125.705 152.588Z" fill="#BBBBBB"/>
<path d="M145.918 125.088L139.854 121.438L142.08 126.273L145.918 125.088Z" fill="#EBEBEB"/>
<path d="M142.08 126.563C141.969 126.563 141.864 126.499 141.816 126.394L139.589 121.559C139.536 121.443 139.564 121.306 139.659 121.22C139.754 121.135 139.894 121.123 140.003 121.188L146.067 124.838C146.166 124.897 146.22 125.009 146.206 125.123C146.192 125.237 146.113 125.332 146.003 125.365L142.166 126.551C142.137 126.559 142.109 126.563 142.08 126.563ZM140.513 122.173L142.238 125.92L145.211 125.001L140.513 122.173Z" fill="#BBBBBB"/>
<path d="M132.582 135.602C132.632 136.304 132.105 136.872 131.403 136.872C130.701 136.872 130.092 136.304 130.041 135.602C129.991 134.901 130.518 134.332 131.22 134.332C131.921 134.332 132.531 134.901 132.582 135.602Z" fill="#BBBBBB"/>
<path d="M140.824 135.602C140.874 136.304 140.347 136.872 139.645 136.872C138.943 136.872 138.334 136.304 138.283 135.602C138.232 134.901 138.76 134.332 139.462 134.332C140.164 134.333 140.773 134.901 140.824 135.602Z" fill="#BBBBBB"/>
<path d="M143.149 143.841C142.997 143.841 142.87 143.724 142.859 143.571C142.712 141.529 139.509 139.867 135.719 139.867C133.208 139.867 130.954 140.614 129.835 141.815C129.338 142.35 129.108 142.926 129.151 143.529C129.163 143.689 129.042 143.828 128.882 143.84C128.721 143.85 128.582 143.731 128.571 143.57C128.516 142.811 128.806 142.067 129.409 141.419C130.634 140.102 133.051 139.285 135.719 139.285C139.876 139.285 143.267 141.149 143.439 143.528C143.45 143.689 143.33 143.828 143.17 143.839C143.162 143.841 143.155 143.841 143.149 143.841Z" fill="#BBBBBB"/>
<path d="M127.9 133.03C127.83 133.03 127.759 133.005 127.702 132.953C127.585 132.844 127.578 132.66 127.687 132.542L128.961 131.169C129.07 131.051 129.255 131.045 129.372 131.154C129.49 131.263 129.496 131.447 129.388 131.565L128.114 132.937C128.056 132.999 127.978 133.03 127.9 133.03Z" fill="#BBBBBB"/>
<path d="M142.551 133.03C142.48 133.03 142.409 133.005 142.352 132.952L140.881 131.58C140.763 131.47 140.757 131.286 140.866 131.169C140.975 131.051 141.16 131.045 141.277 131.154L142.749 132.527C142.867 132.636 142.873 132.82 142.763 132.938C142.706 132.999 142.629 133.03 142.551 133.03Z" fill="#BBBBBB"/>
<path d="M121.354 159.092H122.71L124.667 161.692L124.48 159.092H125.848L126.187 163.792H124.818L122.872 161.211L123.058 163.792H121.692L121.354 159.092Z" fill="#BBBBBB"/>
<path d="M126.801 161.445C126.746 160.678 126.916 160.081 127.314 159.653C127.71 159.226 128.29 159.012 129.053 159.012C129.835 159.012 130.453 159.222 130.906 159.642C131.36 160.062 131.614 160.65 131.668 161.406C131.708 161.955 131.648 162.406 131.488 162.758C131.329 163.109 131.082 163.383 130.746 163.578C130.411 163.774 129.982 163.872 129.461 163.872C128.931 163.872 128.486 163.787 128.127 163.619C127.767 163.45 127.467 163.182 127.224 162.817C126.982 162.452 126.841 161.995 126.801 161.445ZM128.254 161.452C128.288 161.927 128.401 162.267 128.592 162.474C128.783 162.682 129.03 162.785 129.334 162.785C129.646 162.785 129.88 162.684 130.036 162.48C130.193 162.278 130.252 161.913 130.214 161.387C130.182 160.945 130.069 160.622 129.876 160.418C129.683 160.214 129.433 160.112 129.128 160.112C128.835 160.112 128.608 160.215 128.445 160.422C128.283 160.631 128.22 160.973 128.254 161.452Z" fill="#BBBBBB"/>
<path d="M134.491 159.092H136.649C137.074 159.092 137.422 159.149 137.692 159.265C137.962 159.38 138.191 159.545 138.377 159.761C138.564 159.977 138.706 160.228 138.803 160.515C138.901 160.801 138.961 161.105 138.985 161.425C139.021 161.927 138.992 162.317 138.897 162.594C138.803 162.871 138.661 163.103 138.471 163.289C138.281 163.477 138.073 163.601 137.844 163.663C137.532 163.748 137.246 163.791 136.988 163.791H134.83L134.491 159.092ZM136.02 160.156L136.205 162.724H136.561C136.864 162.724 137.077 162.691 137.201 162.623C137.324 162.556 137.416 162.439 137.477 162.271C137.537 162.103 137.554 161.831 137.527 161.455C137.491 160.957 137.386 160.616 137.21 160.432C137.034 160.249 136.758 160.157 136.382 160.157H136.02V160.156Z" fill="#BBBBBB"/>
<path d="M142.469 163.016H140.82L140.647 163.792H139.164L140.592 159.092H142.176L144.28 163.792H142.759L142.469 163.016ZM142.094 162L141.454 160.31L141.062 162H142.094Z" fill="#BBBBBB"/>
<path d="M143.622 159.092H148.036L148.12 160.252H146.639L146.894 163.792H145.442L145.187 160.252H143.706L143.622 159.092Z" fill="#BBBBBB"/>
<path d="M151.419 163.016H149.77L149.597 163.792H148.114L149.542 159.092H151.126L153.23 163.792H151.709L151.419 163.016ZM151.045 162L150.404 160.31L150.013 162H151.045Z" fill="#BBBBBB"/>
<path d="M212.212 103.848C212.748 103.579 213.387 103.232 213.978 102.907C214.58 102.576 215.179 102.231 215.768 101.873C216.944 101.149 218.129 100.434 219.253 99.6395C221.522 98.0765 223.648 96.3419 225.561 94.4477C225.812 94.2185 226.025 93.9641 226.256 93.7217L226.598 93.3545L226.77 93.1709L226.856 93.0791C226.878 93.0551 226.873 93.0599 226.862 93.0743L226.843 93.1037C226.758 93.2639 226.829 93.2153 226.862 93.0605C226.902 92.9117 226.935 92.6687 226.946 92.4059C226.985 91.3163 226.77 89.9429 226.509 88.6151C225.975 85.9241 225.166 83.1563 224.367 80.4443L226.698 79.4219C228.158 82.0295 229.375 84.6929 230.366 87.5807C230.837 89.0435 231.27 90.5123 231.397 92.3165C231.42 92.7761 231.431 93.2591 231.347 93.8225C231.259 94.3769 231.119 95.0405 230.613 95.7929L230.513 95.9315L230.436 96.0323L230.343 96.1451L230.159 96.3695L229.788 96.8195C229.538 97.1159 229.301 97.4285 229.035 97.7063C226.966 100.004 224.664 102.033 222.207 103.797C220.985 104.691 219.735 105.539 218.438 106.311C217.791 106.703 217.137 107.078 216.471 107.442C215.798 107.817 215.157 108.143 214.391 108.502L212.212 103.848Z" fill="#7D400A"/>
<path d="M206.876 244.907C207.341 244.907 207.848 244.811 208.203 244.727C208.249 244.716 208.284 244.679 208.293 244.631C208.301 244.584 208.281 244.537 208.241 244.511C208.069 244.398 206.543 243.413 205.958 243.678C205.866 243.72 205.75 243.812 205.721 244.013C205.683 244.279 205.75 244.491 205.919 244.645C206.133 244.841 206.49 244.907 206.876 244.907ZM207.866 244.557C206.991 244.731 206.333 244.701 206.079 244.469C205.971 244.371 205.931 244.232 205.957 244.046C205.971 243.945 206.018 243.912 206.056 243.895C206.364 243.756 207.244 244.181 207.866 244.557Z" fill="#BBBBBB"/>
<path d="M208.175 244.731C208.196 244.731 208.217 244.725 208.235 244.714C208.272 244.693 208.295 244.654 208.295 244.611C208.295 244.55 208.288 243.103 207.742 242.619C207.596 242.491 207.427 242.437 207.238 242.46C206.939 242.496 206.859 242.684 206.837 242.792C206.723 243.358 207.637 244.443 208.117 244.714C208.135 244.725 208.155 244.731 208.175 244.731ZM207.32 242.693C207.418 242.693 207.505 242.727 207.584 242.797C207.91 243.086 208.022 243.898 208.049 244.38C207.571 243.999 207.002 243.184 207.071 242.839C207.082 242.782 207.115 242.715 207.266 242.697C207.284 242.694 207.302 242.693 207.32 242.693Z" fill="#BBBBBB"/>
<path d="M207.734 88.8398C207.149 91.8218 205.917 97.862 208.004 99.8522C208.004 99.8522 207.188 102.877 201.647 102.877C195.554 102.877 198.735 99.8528 198.735 99.8528C202.061 99.0584 201.975 96.5912 201.396 94.274L207.734 88.8398Z" fill="#7D400A"/>
<path d="M197.57 101.054C196.614 101.184 197.427 98.7065 197.816 98.4497C198.714 97.8563 210.327 97.0163 210.251 98.4257C210.203 99.0323 209.918 100.216 209.41 100.618C208.902 101.02 205.919 99.8051 197.57 101.054Z" fill="#838383"/>
<path d="M199.462 100.219C198.702 100.476 198.774 97.9792 199.033 97.6786C199.632 96.9838 209.031 94.5688 209.31 95.935C209.418 96.5248 209.469 97.7032 209.147 98.161C208.825 98.6182 206.063 97.8616 199.462 100.219Z" fill="#838383"/>
<path d="M195.965 83.4646C195.892 83.4688 195.817 83.4394 195.767 83.3776C195.095 82.5556 194.221 82.6396 194.213 82.6408C194.08 82.6546 193.964 82.5604 193.951 82.4296C193.936 82.2988 194.031 82.1812 194.162 82.1674C194.208 82.1626 195.302 82.0564 196.136 83.0758C196.219 83.1778 196.204 83.3278 196.102 83.4106C196.062 83.4442 196.014 83.4616 195.965 83.4646Z" fill="#838383"/>
<path d="M194.803 86.4004C194.803 86.4004 194.29 88.2046 193.618 89.1166C194.2 89.5612 195.083 89.245 195.083 89.245L194.803 86.4004Z" fill="#7E7E7E"/>
<path d="M195.095 85.6712C195.135 86.0744 194.953 86.4224 194.69 86.4488C194.426 86.4746 194.18 86.1686 194.14 85.7654C194.101 85.3622 194.282 85.0142 194.546 84.9878C194.81 84.962 195.056 85.268 195.095 85.6712Z" fill="#838383"/>
<path d="M194.666 84.9986L193.669 84.8145C193.669 84.8145 194.241 85.523 194.666 84.9986Z" fill="#838383"/>
<path d="M214.02 244.611H208.994L209.388 232.973H214.414L214.02 244.611Z" fill="#7D400A"/>
<path d="M208.596 244.029H214.242C214.448 244.029 214.614 244.172 214.643 244.372L215.286 248.839C215.353 249.303 214.955 249.741 214.481 249.733C212.512 249.7 211.563 249.584 209.081 249.584C207.553 249.584 205.321 249.742 203.212 249.742C201.149 249.742 200.99 247.656 201.869 247.468C205.807 246.621 206.429 245.452 207.756 244.338C207.995 244.137 208.296 244.029 208.596 244.029Z" fill="#838383"/>
<g opacity="0.2">
<path d="M214.415 232.975H209.387L209.187 238.974H214.215L214.415 232.975Z" fill="black"/>
</g>
<path d="M194.024 106.826C190.914 105.609 187.948 104.285 184.994 102.774C182.045 101.265 179.142 99.6575 176.352 97.5101C175.657 96.9635 174.97 96.3659 174.298 95.6681C174.131 95.4881 173.964 95.3213 173.799 95.1149C173.626 94.8977 173.496 94.7699 173.272 94.4363C172.866 93.8531 172.552 93.0701 172.469 92.2709C172.39 91.4711 172.534 90.7073 172.764 90.0983C172.993 89.4785 173.293 88.9727 173.608 88.5341C174.238 87.6557 174.937 87.0065 175.641 86.4221C177.047 85.2587 178.534 84.4127 180.023 83.6219C180.767 83.2271 181.525 82.8713 182.293 82.5437C183.065 82.2107 183.818 81.9011 184.637 81.6191L185.702 83.9309C183.085 85.5803 180.374 87.3935 178.381 89.4263C177.897 89.9297 177.473 90.4565 177.207 90.9203C176.921 91.3925 176.925 91.7459 176.973 91.7189C176.998 91.7189 176.988 91.7081 177.058 91.7777L177.297 92.0339C177.387 92.1413 177.513 92.2511 177.627 92.3615C178.098 92.8013 178.65 93.2429 179.246 93.6629C180.437 94.5107 181.749 95.3039 183.106 96.0449C184.459 96.7961 185.85 97.5149 187.267 98.1971C190.095 99.5513 193.026 100.855 195.903 102.045L194.024 106.826Z" fill="#7D400A"/>
<path d="M187.181 82.2917L188.012 80.4893L184.234 79.1777C184.234 79.1777 183.058 82.7195 184.46 84.3539C185.654 84.1625 186.675 83.3897 187.181 82.2917Z" fill="#7D400A"/>
<path d="M188.012 76.5933L184.992 75.7227L184.234 79.1775L188.012 80.4897V76.5933Z" fill="#7D400A"/>
<path d="M227.009 80.6632L227.45 76.4512L223.557 77.3662C223.557 77.3662 223.5 81.3142 225.559 81.9436L227.009 80.6632Z" fill="#7D400A"/>
<path d="M225.574 73.5039L223.038 74.6883L223.556 77.3673L227.449 76.4523L225.574 73.5039Z" fill="#7D400A"/>
<path d="M208.524 82.9531C208.707 87.9373 208.891 90.0433 206.639 92.8327C203.251 97.0279 197.088 96.1627 195.42 91.3333C193.918 86.9863 193.871 79.5655 198.527 77.1163C203.114 74.7043 208.341 77.9683 208.524 82.9531Z" fill="#7D400A"/>
<path d="M206.352 92.8234C211.245 90.709 214.463 86.2504 213.105 79.279C211.805 72.6094 207.302 71.9506 205.442 73.3342C203.582 74.7178 198.946 72.6556 196.164 74.9968C191.343 79.0534 195.901 83.4268 198.275 86.0182C199.693 88.933 201.551 94.8982 206.352 92.8234Z" fill="#838383"/>
<path d="M204.32 78.0822C205.972 80.4732 209.138 81.1482 211.394 79.59C213.65 78.0324 214.141 74.8314 212.489 72.4404C210.838 70.0494 207.671 69.3744 205.415 70.9326C203.159 72.4902 202.669 75.6912 204.32 78.0822Z" fill="#BBBBBB"/>
<path d="M205.59 73.8007C204.884 69.7819 208.687 66.6829 213.772 68.1805C218.857 69.6781 216.167 74.1859 215.124 77.7859C214.082 81.3859 216.818 84.8149 217.962 82.0729C219.105 79.3315 217.183 78.4849 217.183 78.4849C217.183 78.4849 222.582 79.8847 217.566 85.9711C212.55 92.0581 208.01 85.3369 209.238 81.3703C210.23 78.1651 206.258 77.5993 205.59 73.8007Z" fill="#838383"/>
<path d="M200.508 75.3197C198.187 74.1089 194.256 73.1297 192.018 76.8935C190.96 78.6731 191.37 81.0869 191.37 81.0869L198.203 81.5417L200.508 75.3197Z" fill="#838383"/>
<path d="M190.566 79.9064C190.563 79.9064 190.56 79.9064 190.557 79.9058C190.474 79.901 190.411 79.8296 190.416 79.7468C190.422 79.6448 190.588 77.231 192.045 75.7166C195.566 72.0578 199.695 75.0926 200.876 76.1102C200.939 76.1642 200.946 76.259 200.892 76.322C200.837 76.385 200.743 76.3916 200.68 76.3376C199.549 75.3638 195.6 72.4556 192.261 75.9248C190.881 77.3582 190.717 79.7414 190.715 79.7654C190.711 79.8446 190.645 79.9064 190.566 79.9064Z" fill="#838383"/>
<path d="M199.111 85.8194C199.104 86.7902 198.669 87.7406 198.118 88.3856C197.289 89.3552 196.338 88.8776 196.121 87.8024C195.924 86.8346 196.119 85.1642 197.167 84.5786C198.199 84.002 199.119 84.7094 199.111 85.8194Z" fill="#7D400A"/>
<path d="M198.031 131.473C198.031 131.473 198.352 166.359 201.378 185.8C203.822 201.502 208.346 237.813 208.346 237.813H215.199C215.199 237.813 215.869 202.759 214.628 187.228C211.488 147.929 219.59 140.582 213.052 131.473H198.031Z" fill="#838383"/>
<path opacity="0.1" d="M198.031 131.473C198.031 131.473 198.352 166.359 201.378 185.8C203.822 201.502 208.346 237.813 208.346 237.813H215.199C215.199 237.813 215.869 202.759 214.628 187.228C211.488 147.929 219.59 140.582 213.052 131.473H198.031Z" fill="white"/>
<path opacity="0.3" d="M201.633 147.3C204.039 157.83 202.119 174.414 200.805 181.716C199.413 170.628 198.711 156.258 198.363 145.728C199.605 143.712 200.781 143.58 201.633 147.3Z" fill="black"/>
<path d="M207.408 237.949H216.138L216.596 234.887L207.358 234.574L207.408 237.949Z" fill="#BBBBBB"/>
<path d="M209.899 102.025C210.72 100.393 215.134 99.3656 217.547 99.3692L219.353 107.388C219.353 107.388 214.546 114.522 212.547 113.766C210.185 112.873 208.14 105.523 209.899 102.025Z" fill="#BBBBBB"/>
<path opacity="0.4" d="M209.899 102.025C210.72 100.393 215.134 99.3656 217.547 99.3692L219.353 107.388C219.353 107.388 214.546 114.522 212.547 113.766C210.185 112.873 208.14 105.523 209.899 102.025Z" fill="black"/>
<path d="M204.812 235.987C204.833 235.952 204.835 235.907 204.815 235.87C204.792 235.825 204.743 235.8 204.692 235.808C204.44 235.846 202.219 236.199 201.919 236.833C201.861 236.956 201.869 237.085 201.943 237.208C202.065 237.412 202.238 237.528 202.457 237.55C203.185 237.625 204.236 236.615 204.798 236.007C204.803 236 204.808 235.994 204.812 235.987ZM202.147 236.91C202.352 236.573 203.501 236.263 204.377 236.101C203.586 236.906 202.889 237.354 202.481 237.312C202.338 237.297 202.229 237.223 202.146 237.085C202.114 237.031 202.11 236.985 202.134 236.934C202.138 236.926 202.142 236.917 202.147 236.91Z" fill="#BBBBBB"/>
<path d="M204.812 235.987C204.816 235.98 204.82 235.972 204.822 235.963C204.836 235.924 204.827 235.879 204.8 235.847C204.762 235.804 203.873 234.778 203.052 234.725C202.801 234.709 202.581 234.783 202.398 234.947C202.152 235.168 202.173 235.36 202.235 235.481C202.494 235.996 204.09 236.176 204.734 236.042C204.767 236.035 204.794 236.015 204.812 235.987ZM202.463 235.232C202.481 235.201 202.511 235.165 202.557 235.124C202.692 235.003 202.85 234.95 203.037 234.962C203.576 234.998 204.188 235.555 204.467 235.839C203.756 235.899 202.603 235.683 202.447 235.374C202.438 235.355 202.415 235.31 202.463 235.232Z" fill="#BBBBBB"/>
<path d="M210.049 233.859L205.453 235.901L203.404 231.638L200.728 226.055L200.414 225.406L205.005 223.361L205.36 224.092L207.955 229.498L210.049 233.859Z" fill="#7D400A"/>
<path opacity="0.2" d="M207.955 229.498L203.404 231.637L200.728 226.055L205.36 224.092L207.955 229.498Z" fill="black"/>
<path d="M192.641 131.473C192.641 131.473 177.957 167.974 181.937 185.162C185.534 200.696 201.44 230.114 201.44 230.114L207.59 227.027C207.59 227.027 197.757 191.515 196.69 183.8C194.615 168.789 207.956 147.6 207.956 131.473H192.641Z" fill="#838383"/>
<path opacity="0.1" d="M192.641 131.473C192.641 131.473 177.957 167.974 181.937 185.162C185.534 200.696 201.44 230.114 201.44 230.114L207.59 227.027C207.59 227.027 197.757 191.515 196.69 183.8C194.615 168.789 207.956 147.6 207.956 131.473H192.641Z" fill="white"/>
<path d="M204.632 235.261L209.197 231.938C209.363 231.817 209.582 231.834 209.723 231.979L212.872 235.213C213.199 235.548 213.134 236.137 212.747 236.41C211.135 237.541 210.3 238.006 208.293 239.467C207.058 240.365 204.596 242.353 202.891 243.595C201.223 244.808 199.867 243.215 200.467 242.546C203.153 239.543 203.719 237.686 204.136 236.005C204.211 235.702 204.389 235.438 204.632 235.261Z" fill="#838383"/>
<path d="M201.043 231.417L208.982 227.785L207.963 224.551L199.462 228.428L201.043 231.417Z" fill="#BBBBBB"/>
<path d="M196.538 101.616C195.88 99.9111 190.144 98.0415 187.267 97.3887L186.003 106.849C186.003 106.849 190.702 113.602 192.765 113.044C195.201 112.384 197.95 105.268 196.538 101.616Z" fill="#BBBBBB"/>
<path opacity="0.4" d="M196.538 101.616C195.88 99.9111 190.144 98.0415 187.267 97.3887L186.003 106.849C186.003 106.849 190.702 113.602 192.765 113.044C195.201 112.384 197.95 105.268 196.538 101.616Z" fill="black"/>
<path d="M190.239 101.139C190.239 101.139 187.845 101.982 192.641 131.472C200.74 131.472 209.112 131.472 213.052 131.472C212.71 123.164 212.7 118.042 216.67 100.993C216.67 100.993 212.394 100.063 208.003 99.8514C204.568 99.6858 201.754 99.576 198.734 99.852C194.754 100.215 190.239 101.139 190.239 101.139Z" fill="#BBBBBB"/>
<path opacity="0.4" d="M190.239 101.139C190.239 101.139 187.845 101.982 192.641 131.472C200.74 131.472 209.112 131.472 213.052 131.472C212.71 123.164 212.7 118.042 216.67 100.993C216.67 100.993 212.394 100.063 208.003 99.8514C204.568 99.6858 201.754 99.576 198.734 99.852C194.754 100.215 190.239 101.139 190.239 101.139Z" fill="black"/>
<path d="M213.358 130.275L214.278 132.102C214.35 132.243 214.182 132.388 213.946 132.388H192.54C192.356 132.388 192.203 132.298 192.192 132.182L192.008 130.355C191.995 130.228 192.155 130.121 192.356 130.121H213.026C213.177 130.122 213.312 130.183 213.358 130.275Z" fill="#BBBBBB"/>
<path opacity="0.3" d="M213.358 130.275L214.278 132.102C214.35 132.243 214.182 132.388 213.946 132.388H192.54C192.356 132.388 192.203 132.298 192.192 132.182L192.008 130.355C191.995 130.228 192.155 130.121 192.356 130.121H213.026C213.177 130.122 213.312 130.183 213.358 130.275Z" fill="white"/>
<path d="M210.582 132.587H211.136C211.246 132.587 211.33 132.53 211.322 132.461L211.063 130.087C211.055 130.017 210.959 129.961 210.848 129.961H210.295C210.184 129.961 210.1 130.018 210.108 130.087L210.368 132.461C210.376 132.53 210.472 132.587 210.582 132.587Z" fill="#838383"/>
<path d="M197.164 132.587H197.718C197.828 132.587 197.912 132.53 197.904 132.461L197.645 130.087C197.637 130.017 197.541 129.961 197.43 129.961H196.877C196.766 129.961 196.682 130.018 196.69 130.087L196.95 132.461C196.957 132.53 197.054 132.587 197.164 132.587Z" fill="#838383"/>
</svg>
