<svg width="77" height="81" viewBox="0 0 77 81" fill="none" xmlns="http://www.w3.org/2000/svg">
<g clip-path="url(#clip0_13875_96842)">
<path d="M29.4505 50.873C29.4505 50.873 27.2515 50.9562 27.7969 53.6851C29.9785 53.0797 29.4505 50.873 29.4505 50.873Z" fill="#003366"/>
<path d="M25.5547 51.9005C27.8117 52.1075 28.0979 49.8563 28.0979 49.8563C28.0979 49.8563 26.0111 49.1562 25.5547 51.9005Z" fill="#003366"/>
<path d="M23.4078 51.9333C25.4231 50.8966 24.4599 48.8389 24.4599 48.8389C24.4599 48.8389 22.3229 49.3707 23.4078 51.9333Z" fill="#003366"/>
<path d="M21.04 49.7832C23.2757 50.141 23.7148 47.9149 23.7148 47.9149C23.7148 47.9149 21.6802 47.0756 21.04 49.7832Z" fill="#003366"/>
<path d="M18.4746 52.3085C20.7413 52.2911 20.7954 50.0225 20.7954 50.0225C20.7954 50.0225 18.6583 49.5332 18.4746 52.3085Z" fill="#003366"/>
<path d="M19.7586 48.6886C19.7586 48.6886 17.9251 47.4702 16.7725 50.0018C18.896 50.787 19.7586 48.6886 19.7586 48.6886Z" fill="#003366"/>
<path d="M14.6951 49.4752C16.9096 48.9995 16.5131 46.7676 16.5131 46.7676C16.5131 46.7676 14.3122 46.7193 14.6951 49.4752Z" fill="#003366"/>
<path d="M16.0302 45.6747C16.0302 45.6747 14.2896 44.3344 12.9609 46.7829C15.0342 47.7112 16.0302 45.6747 16.0302 45.6747Z" fill="#003366"/>
<path d="M19.7451 47.2255C21.7101 48.353 22.9091 46.4248 22.9091 46.4248C22.9091 46.4248 21.3039 44.9201 19.7451 47.2255Z" fill="#003366"/>
<path d="M17.7793 46.3613C20.0421 46.2588 20.0208 43.9902 20.0208 43.9902C20.0208 43.9902 17.8586 43.5783 17.7793 46.3613Z" fill="#003366"/>
<path d="M24.7106 40.4453C24.7106 40.4453 23.0686 41.9094 25.225 43.6674C26.5227 41.8107 24.7106 40.4453 24.7106 40.4453Z" fill="#003366"/>
<path d="M23.6756 38.1553C23.6756 38.1553 21.4843 38.3641 22.1806 41.0563C24.3273 40.3291 23.6756 38.1553 23.6756 38.1553Z" fill="#003366"/>
<path d="M6.48206 38.832C6.48206 38.832 4.8401 40.298 6.99651 42.056C8.29229 40.1994 6.48206 38.832 6.48206 38.832Z" fill="#003366"/>
<path d="M3.78478 40.9694C5.92959 40.2422 5.27783 38.0684 5.27783 38.0684C5.27783 38.0684 3.08661 38.2792 3.78478 40.9694Z" fill="#003366"/>
<path d="M26.8575 43.9322C28.8514 42.8588 27.8477 40.8242 27.8477 40.8242C27.8477 40.8242 25.7164 41.3928 26.8575 43.9322Z" fill="#003366"/>
<path d="M19.0094 43.0063C21.2567 42.7085 21.0382 40.4495 21.0382 40.4495C21.0382 40.4495 18.8489 40.2271 19.0094 43.0063Z" fill="#003366"/>
<path d="M17.4153 44.0001C19.1559 42.5458 17.7576 40.7549 17.7576 40.7549C17.7576 40.7549 15.7907 41.7432 17.4153 44.0001Z" fill="#003366"/>
<path d="M15.6013 41.8073C15.6013 41.8073 13.4314 41.4379 13.4043 44.2209C15.6651 44.0817 15.6013 41.8073 15.6013 41.8073Z" fill="#003366"/>
<path d="M19.79 39.6047C22.0528 39.684 22.2133 37.4212 22.2133 37.4212C22.2133 37.4212 20.0917 36.8391 19.79 39.6047Z" fill="#003366"/>
<path d="M17.6434 39.757C19.5987 38.6101 18.5195 36.6143 18.5195 36.6143C18.5195 36.6143 16.4134 37.2602 17.6434 39.757Z" fill="#003366"/>
<path d="M46.449 22.6484C46.449 22.6484 45.95 24.7913 48.7253 24.9847C48.7137 22.72 46.449 22.6484 46.449 22.6484Z" fill="#003366"/>
<path d="M43.6427 21.7373C43.6427 21.7373 42.5539 23.65 45.159 24.6248C45.7953 22.451 43.6427 21.7373 43.6427 21.7373Z" fill="#003366"/>
<path d="M47.2004 28.2054C48.2467 26.196 46.272 25.0762 46.272 25.0762C46.272 25.0762 44.8331 26.7433 47.2004 28.2054Z" fill="#003366"/>
<path d="M42.2026 22.5137C42.2026 22.5137 40.5084 23.9178 42.5991 25.7531C43.9645 23.9448 42.2026 22.5137 42.2026 22.5137Z" fill="#003366"/>
<path d="M39.4286 25.0703C39.4286 25.0703 38.7498 27.1648 41.5 27.5942C41.674 25.3353 39.4286 25.0703 39.4286 25.0703Z" fill="#003366"/>
<path d="M51.5787 44.7832C51.5787 44.7832 50.0064 46.4174 51.5787 48.0459C53.4334 45.9687 51.5787 44.7832 51.5787 44.7832Z" fill="#003366"/>
<path d="M54.4159 47.6417C55.412 45.0424 53.2555 44.5898 53.2555 44.5898C53.2555 44.5898 52.3659 46.6766 54.4159 47.6417Z" fill="#003366"/>
<path d="M56.2573 48.7555C58.4891 47.0961 56.9148 45.5586 56.9148 45.5586C56.9148 45.5586 55.0408 46.8428 56.2573 48.7555Z" fill="#003366"/>
<path d="M58.024 45.1357C58.024 45.1357 57.2755 47.2767 59.3778 48.1006C60.2036 45.4355 58.024 45.1357 58.024 45.1357Z" fill="#003366"/>
<path d="M58.9459 51.3976C60.1933 48.9104 58.095 48.2471 58.095 48.2471C58.095 48.2471 57.0003 50.2352 58.9459 51.3976Z" fill="#003366"/>
<path d="M50.1861 56.0716C47.7976 54.6444 46.9814 56.6886 46.9814 56.6886C46.9814 56.6886 48.8845 57.9302 50.1861 56.0716Z" fill="#003366"/>
<path d="M62.0138 46.7888C62.0138 46.7888 61.6947 49.0361 63.9266 49.4345C64.2128 46.6746 62.0138 46.7888 62.0138 46.7888Z" fill="#003366"/>
<path d="M61.7944 46.5509C61.6165 43.7737 59.4736 44.2591 59.4736 44.2591C59.4736 44.2591 59.5297 46.5277 61.7944 46.5509Z" fill="#003366"/>
<path d="M63.1927 43.6191C63.1927 43.6191 62.0323 45.5647 63.9257 46.7986C65.266 44.3599 63.1927 43.6191 63.1927 43.6191Z" fill="#003366"/>
<path d="M60.0936 43.5763C61.3507 41.093 59.2543 40.4238 59.2543 40.4238C59.2543 40.4238 58.1538 42.4081 60.0936 43.5763Z" fill="#003366"/>
<path d="M61.8196 38.1289C61.8196 38.1289 60.1564 39.6761 61.6378 41.3858C63.6028 39.417 61.8196 38.1289 61.8196 38.1289Z" fill="#003366"/>
<path d="M52.8197 48.1836C52.8197 48.1836 50.9225 49.431 52.1003 51.367C54.365 49.7521 52.8197 48.1836 52.8197 48.1836Z" fill="#003366"/>
<path d="M44.958 57.7039C47.2227 56.0871 45.6755 54.5244 45.6755 54.5244C45.6755 54.5244 43.7802 55.768 44.958 57.7039Z" fill="#003366"/>
<path d="M49.426 59.1661C49.426 59.1661 48.0161 57.3887 46.1924 58.7309C48.0007 60.837 49.426 59.1661 49.426 59.1661Z" fill="#003366"/>
<path d="M46.9714 62.0887C46.9714 62.0887 47.598 59.9071 45.4455 59.2031C44.7821 61.9049 46.9714 62.0887 46.9714 62.0887Z" fill="#003366"/>
<path d="M64.1075 40.0508C64.1075 40.0508 62.7769 41.8881 64.562 43.2825C66.1169 40.9675 64.1075 40.0508 64.1075 40.0508Z" fill="#003366"/>
<path d="M65.4325 44.9462C67.9776 43.8226 66.7863 41.9756 66.7863 41.9756C66.7863 41.9756 64.6724 42.813 65.4325 44.9462Z" fill="#003366"/>
<path d="M65.7207 40.6001C66.8617 38.0607 64.7363 37.4883 64.7363 37.4883C64.7363 37.4883 63.7287 39.519 65.7207 40.6001Z" fill="#003366"/>
<path d="M67.3839 41.1807C69.7047 39.649 68.2194 38.0264 68.2194 38.0264C68.2194 38.0264 66.2796 39.1926 67.3839 41.1807Z" fill="#003366"/>
<path d="M69.4932 37.6309C69.4932 37.6309 68.8395 39.8047 70.9843 40.5319C71.6844 37.8417 69.4932 37.6309 69.4932 37.6309Z" fill="#003366"/>
<path d="M39.4907 4.38184C37.7153 5.79172 39.0633 7.61742 39.0633 7.61742C39.0633 7.61742 41.0553 6.6833 39.4907 4.38184Z" fill="#003366"/>
<path d="M39.7513 9.5751C39.7513 9.5751 41.9444 9.40684 41.2985 6.70117C39.1382 7.38968 39.7513 9.5751 39.7513 9.5751Z" fill="#003366"/>
<path d="M44.4589 7.54205C44.4589 7.54205 46.2208 6.225 44.223 4.28906C42.7647 6.0258 44.4589 7.54205 44.4589 7.54205Z" fill="#003366"/>
<path d="M42.4568 11.9209C42.4568 11.9209 44.2399 10.6309 42.2634 8.66406C40.7858 10.3795 42.4568 11.9209 42.4568 11.9209Z" fill="#003366"/>
<path d="M48.6153 2.02051C46.5362 2.91982 47.3621 5.03368 47.3621 5.03368C47.3621 5.03368 49.5281 4.64882 48.6153 2.02051Z" fill="#003366"/>
<path d="M46.2103 3.81731C46.2103 3.81731 47.5506 2.07671 45.1021 0.748047C44.1757 2.81356 46.2103 3.81731 46.2103 3.81731Z" fill="#003366"/>
<path d="M50.5413 3.76758C48.2786 3.87201 48.3018 6.1406 48.3018 6.1406C48.3018 6.1406 50.4659 6.54867 50.5413 3.76758Z" fill="#003366"/>
<path d="M53.2019 3.15918C51.3472 4.45883 52.583 6.36769 52.583 6.36769C52.583 6.36769 54.6273 5.54767 53.2019 3.15918Z" fill="#003366"/>
<path d="M55.8396 4.96463C53.5749 4.91628 53.4453 7.181 53.4453 7.181C53.4453 7.181 55.5747 7.73606 55.8396 4.96463Z" fill="#003366"/>
<path d="M49.4225 7.19586C47.1752 6.92316 46.8213 9.16467 46.8213 9.16467C46.8213 9.16467 48.8849 9.92667 49.4225 7.19586Z" fill="#003366"/>
<path d="M57.1403 16.4254C54.8911 16.1527 54.5391 18.3942 54.5391 18.3942C54.5391 18.3942 56.6026 19.1581 57.1403 16.4254Z" fill="#003366"/>
<path d="M50.4292 10.2862C50.4292 10.2862 52.5798 9.82201 51.5703 7.22852C49.526 8.20325 50.4292 10.2862 50.4292 10.2862Z" fill="#003366"/>
<path d="M49.2574 9.64062C47.2151 10.6231 48.1338 12.7002 48.1338 12.7002C48.1338 12.7002 50.2747 12.2322 49.2574 9.64062Z" fill="#003366"/>
<path d="M47.6381 14.9668C47.6381 14.9668 48.58 12.9767 45.9091 12.1973C45.4372 14.4136 47.6381 14.9668 47.6381 14.9668Z" fill="#003366"/>
<path d="M47.6836 21.1401C47.6836 21.1401 47.0067 19.0455 44.5273 20.3123C45.7032 22.2483 47.6836 21.1401 47.6836 21.1401Z" fill="#003366"/>
<path d="M46.6132 18.5176C46.6132 18.5176 47.9342 16.7577 45.4741 15.46C44.5671 17.5351 46.6132 18.5176 46.6132 18.5176Z" fill="#003366"/>
<path d="M50.8728 13.9416C50.8728 13.9416 52.977 13.2937 51.7451 10.7988C49.7937 11.9476 50.8728 13.9416 50.8728 13.9416Z" fill="#003366"/>
<path d="M52.8227 9.26953C51.79 11.2848 53.7704 12.391 53.7704 12.391C53.7704 12.391 55.1977 10.7084 52.8227 9.26953Z" fill="#003366"/>
<path d="M55.3513 10.575C55.3513 10.575 57.4922 10.0683 56.4343 7.49609C54.4075 8.50951 55.3513 10.575 55.3513 10.575Z" fill="#003366"/>
<path d="M59.5141 7.95996C57.3983 8.76837 58.1333 10.917 58.1333 10.917C58.1333 10.917 60.3168 10.6231 59.5141 7.95996Z" fill="#003366"/>
<path d="M54.6798 16.4963C54.6798 16.4963 56.3662 15.0806 54.2639 13.2588C52.9101 15.0709 54.6798 16.4963 54.6798 16.4963Z" fill="#003366"/>
<path d="M54.3559 20.8129C54.3559 20.8129 55.143 18.7571 52.4219 18.1865C52.1182 20.4319 54.3559 20.8129 54.3559 20.8129Z" fill="#003366"/>
<path d="M8.70707 42.3947C10.6604 41.2478 9.58317 39.252 9.58317 39.252C9.58317 39.252 7.47897 39.8979 8.70707 42.3947Z" fill="#003366"/>
<path d="M3.30957 30.9886C4.01355 33.1431 6.19317 32.5146 6.19317 32.5146C6.19317 32.5146 6.01137 30.3214 3.30957 30.9886Z" fill="#003366"/>
<path d="M2.48814 32.4984C2.48814 32.4984 3.38552 30.489 0.697254 29.7695C0.283377 31.9956 2.48814 32.4984 2.48814 32.4984Z" fill="#003366"/>
<path d="M4.99081 28.667C4.88638 30.9298 7.14916 31.1232 7.14916 31.1232C7.14916 31.1232 7.7545 28.9958 4.99081 28.667Z" fill="#003366"/>
<path d="M7.99734 27.4375C7.99734 27.4375 7.37459 25.3256 4.86426 26.5246C5.98791 28.4915 7.99734 27.4375 7.99734 27.4375Z" fill="#003366"/>
<path d="M8.89282 26.6521C8.89282 26.6521 9.64128 24.5827 6.90854 24.0625C6.64938 26.3137 8.89282 26.6521 8.89282 26.6521Z" fill="#003366"/>
<path d="M5.45197 24.6235C5.45197 24.6235 5.83877 22.4594 3.06348 22.4014C3.18338 24.6622 5.45197 24.6235 5.45197 24.6235Z" fill="#003366"/>
<path d="M7.9386 22.7377C7.9386 22.7377 9.07386 20.852 6.4939 19.8135C5.80346 21.9699 7.9386 22.7377 7.9386 22.7377Z" fill="#003366"/>
<path d="M10.3419 25.7796C10.3419 25.7796 11.7731 24.1087 9.40006 22.6543C8.36344 24.6676 10.3419 25.7796 10.3419 25.7796Z" fill="#003366"/>
<path d="M10.8926 21.5886C11.086 23.8437 13.3604 23.716 13.3604 23.716C13.3604 23.716 13.6737 21.5422 10.8926 21.5886Z" fill="#003366"/>
<path d="M16.7809 28.1161C16.7809 28.1161 15.2453 26.5399 13.5859 28.7737C15.4987 29.9882 16.7809 28.1161 16.7809 28.1161Z" fill="#003366"/>
<path d="M19.5254 27.6422C19.5254 27.6422 19.2178 25.4626 16.5586 26.2884C17.3825 28.3945 19.5254 27.6422 19.5254 27.6422Z" fill="#003366"/>
<path d="M17.9737 31.3329C17.9737 31.3329 17.3104 29.2345 14.8232 30.4819C15.9856 32.4275 17.9737 31.3329 17.9737 31.3329Z" fill="#003366"/>
<path d="M16.7102 25.0234C16.7102 25.0234 16.834 22.8264 14.0664 23.1126C14.4629 25.3425 16.7102 25.0234 16.7102 25.0234Z" fill="#003366"/>
<path d="M16.4473 22.4434C17.7005 24.331 19.6345 23.1435 19.6345 23.1435C19.6345 23.1435 18.8725 21.0799 16.4473 22.4434Z" fill="#003366"/>
<path d="M15.7793 20.3844C15.7793 20.3844 14.704 18.462 12.5205 20.191C14.0522 21.8562 15.7793 20.3844 15.7793 20.3844Z" fill="#003366"/>
<path d="M9.83869 31.1079C9.83869 31.1079 10.2255 28.9418 7.4502 28.8838C7.56624 31.1466 9.83869 31.1079 9.83869 31.1079Z" fill="#003366"/>
<path d="M10.7115 29.2417C10.7115 29.2417 12.8776 28.8549 11.955 26.2246C9.87987 27.1297 10.7115 29.2417 10.7115 29.2417Z" fill="#003366"/>
<path d="M13.3752 32.4251C13.3752 32.4251 14.8064 30.7522 12.4334 29.2998C11.389 31.317 13.3752 32.4251 13.3752 32.4251Z" fill="#003366"/>
<path d="M15.375 26.8471C15.375 26.8471 15.6883 24.6675 12.9072 24.7197C13.1084 26.9689 15.375 26.8471 15.375 26.8471Z" fill="#003366"/>
<path d="M10.109 32.1991C10.109 32.1991 8.21176 31.0832 7.20801 33.6728C9.36249 34.3419 10.109 32.1991 10.109 32.1991Z" fill="#003366"/>
<path d="M0 34.1387C1.37701 35.9373 3.22785 34.6222 3.22785 34.6222C3.22785 34.6222 2.3266 32.6147 0 34.1387Z" fill="#003366"/>
<path d="M72.3781 33.1641C72.3781 33.1641 71.1867 35.0981 73.0724 36.3513C74.4359 33.9299 72.3781 33.1641 72.3781 33.1641Z" fill="#003366"/>
<path d="M72.6562 31.3712C72.6562 31.3712 72.84 33.634 75.1028 33.5296C74.774 30.7678 72.6562 31.3712 72.6562 31.3712Z" fill="#003366"/>
<path d="M73.4004 29.4059C73.4004 29.4059 74.174 31.5333 76.3246 30.8545C75.288 28.2726 73.4004 29.4059 73.4004 29.4059Z" fill="#003366"/>
<path d="M68.6497 34.0076C68.6497 34.0076 68.3712 36.2608 70.6089 36.6185C70.8448 33.8452 68.6497 34.0076 68.6497 34.0076Z" fill="#003366"/>
<path d="M70.3455 27.1728C70.3455 27.1728 72.6063 26.964 72.4729 24.7012C69.7189 25.0628 70.3455 27.1728 70.3455 27.1728Z" fill="#003366"/>
<path d="M74.4611 23.4805C72.2176 25.1282 73.7861 26.6754 73.7861 26.6754C73.7861 26.6754 75.664 25.399 74.4611 23.4805Z" fill="#003366"/>
<path d="M68.9484 26.2187C68.9484 26.2187 70.9868 25.2227 70.0662 23.1533C67.6139 24.4684 68.9484 26.2187 68.9484 26.2187Z" fill="#003366"/>
<path d="M66.82 23.0993C66.82 23.0993 69.0751 23.3508 69.4077 21.1112C66.6324 20.9062 66.82 23.0993 66.82 23.0993Z" fill="#003366"/>
<path d="M61.269 25.0603C61.269 25.0603 63.524 25.3117 63.8567 23.0721C61.0891 22.8671 61.269 25.0603 61.269 25.0603Z" fill="#003366"/>
<path d="M65.7002 22.6956C65.7002 22.6956 67.6671 21.5622 66.6073 19.5605C64.2497 21.0381 65.7002 22.6956 65.7002 22.6956Z" fill="#003366"/>
<path d="M63.7688 19.1582C62.0881 21.3746 64.0299 22.4093 64.0299 22.4093C64.0299 22.4093 65.4688 20.6551 63.7688 19.1582Z" fill="#003366"/>
<path d="M65.8821 30.1045C64.2014 32.3209 66.1432 33.3575 66.1432 33.3575C66.1432 33.3575 67.582 31.6014 65.8821 30.1045Z" fill="#003366"/>
<path d="M60.6826 27.4764C60.6826 27.4764 62.868 28.0875 63.5565 25.9292C60.8509 25.2813 60.6826 27.4764 60.6826 27.4764Z" fill="#003366"/>
<path d="M60.4828 31.3442C60.4828 31.3442 62.732 31.6401 63.1072 29.4102C60.3358 29.1492 60.4828 31.3442 60.4828 31.3442Z" fill="#003366"/>
<path d="M58.5069 28.4559C58.5069 28.4559 58.6442 26.1892 56.3911 25.9707C56.3253 28.7518 58.5069 28.4559 58.5069 28.4559Z" fill="#003366"/>
<path d="M54.5742 27.8487C54.5742 27.8487 56.2548 26.3247 54.7927 24.5938C52.8046 26.5394 54.5742 27.8487 54.5742 27.8487Z" fill="#003366"/>
<path d="M67.8588 24.248C65.2886 25.3137 66.4432 27.1877 66.4432 27.1877C66.4432 27.1877 68.5686 26.3987 67.8588 24.248Z" fill="#003366"/>
<path d="M65.7316 18.8947C65.7316 18.8947 65.7316 16.6261 63.4746 16.5391C63.5694 19.326 65.7316 18.8947 65.7316 18.8947Z" fill="#003366"/>
<path d="M57.6402 33.0772C57.6402 33.0772 59.0791 31.3231 57.3791 29.8242C55.6985 32.0425 57.6402 33.0772 57.6402 33.0772Z" fill="#003366"/>
<path d="M59.8889 26.811C59.8889 26.811 61.1596 24.9292 59.3281 23.5947C57.8602 25.9581 59.8889 26.811 59.8889 26.811Z" fill="#003366"/>
<path d="M69.4894 29.019C67.6018 26.9748 66.2422 28.7057 66.2422 28.7057C66.2422 28.7057 67.7178 30.4289 69.4894 29.019Z" fill="#003366"/>
<path d="M73.8988 27.6011C71.1776 27.0209 71.0693 29.2276 71.0693 29.2276C71.0693 29.2276 73.276 29.7788 73.8988 27.6011Z" fill="#003366"/>
<path d="M19.9461 19.1636C19.9461 19.1636 20.4335 17.0168 17.6562 16.8428C17.6795 19.1056 19.9461 19.1636 19.9461 19.1636Z" fill="#003366"/>
<path d="M16.7725 20.2255C18.0064 22.1247 19.952 20.9585 19.952 20.9585C19.952 20.9585 19.2112 18.8852 16.7725 20.2255Z" fill="#003366"/>
<path d="M39.5156 38.0512C39.5156 38.0512 39.8289 35.8716 37.0479 35.9238C37.2509 38.173 39.5156 38.0512 39.5156 38.0512Z" fill="#003366"/>
<path d="M29.8379 47.2337C29.8379 47.2337 30.1512 45.056 27.3682 45.1063C27.5712 47.3556 29.8379 47.2337 29.8379 47.2337Z" fill="#003366"/>
<path d="M42.9362 42.4452C42.9362 42.4452 41.4006 40.869 39.7412 43.1028C41.6539 44.3154 42.9362 42.4452 42.9362 42.4452Z" fill="#003366"/>
<path d="M45.6767 41.9751C45.6767 41.9751 45.3711 39.7955 42.71 40.6116C43.5338 42.7274 45.6767 41.9751 45.6767 41.9751Z" fill="#003366"/>
<path d="M40.2217 37.4417C40.6085 39.6716 42.8655 39.3525 42.8655 39.3525C42.8655 39.3525 42.9892 37.1555 40.2217 37.4417Z" fill="#003366"/>
<path d="M45.7898 37.4732C45.7898 37.4732 45.0278 35.4077 42.6025 36.7712C43.8558 38.6665 45.7898 37.4732 45.7898 37.4732Z" fill="#003366"/>
<path d="M38.6758 34.5155C40.2056 36.1845 41.9326 34.7089 41.9326 34.7089C41.9326 34.7089 40.8573 32.7904 38.6758 34.5155Z" fill="#003366"/>
<path d="M13.7588 18.1657C13.7588 18.1657 12.6854 16.2433 10.502 17.9723C12.0317 19.6317 13.7588 18.1657 13.7588 18.1657Z" fill="#003366"/>
<path d="M38.875 30.4502C36.7998 31.3553 37.6314 33.4672 37.6314 33.4672C37.6314 33.4672 39.7975 33.0766 38.875 30.4502Z" fill="#003366"/>
<path d="M41.5303 41.18C41.5303 41.18 41.8436 39.0023 39.0625 39.0526C39.2656 41.2961 41.5303 41.18 41.5303 41.18Z" fill="#003366"/>
<path d="M44.1607 29.6923C44.1607 29.6923 45.5145 27.9517 43.0622 26.6191C42.1378 28.6827 44.1607 29.6923 44.1607 29.6923Z" fill="#003366"/>
<path d="M46.1033 35.2875C46.1033 35.2875 45.3626 33.2142 42.9238 34.5525C44.1577 36.4537 46.1033 35.2875 46.1033 35.2875Z" fill="#003366"/>
<path d="M35.9952 31.4503C36.4458 29.2301 34.2411 28.6982 34.2411 28.6982C34.2411 28.6982 33.3166 30.6961 35.9952 31.4503Z" fill="#003366"/>
<path d="M26.1716 18.6797C25.719 20.898 27.9238 21.4318 27.9238 21.4318C27.9238 21.4318 28.8502 19.4359 26.1716 18.6797Z" fill="#003366"/>
<path d="M23.049 20.7107C23.049 20.7107 25.2305 20.9969 25.1512 18.2158C22.8981 18.446 23.049 20.7107 23.049 20.7107Z" fill="#003366"/>
<path d="M26.6904 26.3373C28.1738 28.0489 29.9415 26.6254 29.9415 26.6254C29.9415 26.6254 28.9223 24.674 26.6904 26.3373Z" fill="#003366"/>
<path d="M37.2756 28.803C37.2756 28.803 37.6082 26.6273 34.8271 26.6466C35.0089 28.8997 37.2756 28.803 37.2756 28.803Z" fill="#003366"/>
<path d="M36.5009 34.44C36.5009 34.44 36.47 32.2391 33.7295 32.7188C34.2826 34.9158 36.5009 34.44 36.5009 34.44Z" fill="#003366"/>
<path d="M56.1612 33.8193C53.9119 34.0862 54.0995 36.3451 54.0995 36.3451C54.0995 36.3451 56.2869 36.5985 56.1612 33.8193Z" fill="#003366"/>
<path d="M51.91 30.9961C51.91 30.9961 50.9856 32.9939 53.6642 33.7482C54.1167 31.5279 51.91 30.9961 51.91 30.9961Z" fill="#003366"/>
<path d="M54.5539 30.3186C54.5539 30.3186 54.8866 28.1429 52.1055 28.1622C52.2873 30.4212 54.5539 30.3186 54.5539 30.3186Z" fill="#003366"/>
<path d="M52.0008 34.2988C50.5968 36.0762 52.3257 37.546 52.3257 37.546C52.3257 37.546 54.0547 36.1806 52.0008 34.2988Z" fill="#003366"/>
<path d="M28.775 21.0518C28.514 23.3029 30.7574 23.6414 30.7574 23.6414C30.7574 23.6414 31.5078 21.572 28.775 21.0518Z" fill="#003366"/>
<path d="M41.1242 12.5374C41.1242 12.5374 40.9868 10.3423 38.2734 10.9516C38.9291 13.1196 41.1242 12.5374 41.1242 12.5374Z" fill="#003366"/>
<path d="M28.1377 17.8044C29.124 19.8448 31.2012 18.9281 31.2012 18.9281C31.2012 18.9281 30.7273 16.7794 28.1377 17.8044Z" fill="#003366"/>
<path d="M14.8851 15.9258C14.6259 18.177 16.8694 18.5154 16.8694 18.5154C16.8694 18.5154 17.6198 16.446 14.8851 15.9258Z" fill="#003366"/>
<path d="M17.5742 15.2025C17.5742 15.2025 17.0965 13.0538 14.5107 14.0789C15.4893 16.1173 17.5742 15.2025 17.5742 15.2025Z" fill="#003366"/>
<path d="M25.8635 23.4258C23.6142 23.6965 23.8037 25.9574 23.8037 25.9574C23.8037 25.9574 25.9911 26.2049 25.8635 23.4258Z" fill="#003366"/>
<path d="M25.4361 27.668C23.8638 29.2983 25.4361 30.9326 25.4361 30.9326C25.4361 30.9326 27.2908 29.7432 25.4361 27.668Z" fill="#003366"/>
<path d="M28.9604 25.004C28.9604 25.004 29.8867 23.0081 27.2082 22.252C26.7537 24.4703 28.9604 25.004 28.9604 25.004Z" fill="#003366"/>
<path d="M65.7343 13.6518C65.7343 13.6518 63.5798 13.2089 63.458 15.99C65.7343 15.9204 65.7343 13.6518 65.7343 13.6518Z" fill="#003366"/>
<path d="M69.1435 16.2932C69.1435 16.2932 66.9871 15.8522 66.8672 18.6314C69.1319 18.5637 69.1435 16.2932 69.1435 16.2932Z" fill="#003366"/>
<path d="M56.3115 24.6073C58.5762 24.5396 58.5878 22.271 58.5878 22.271C58.5878 22.271 56.4334 21.8281 56.3115 24.6073Z" fill="#003366"/>
<path d="M63.248 12.0407C63.248 12.0407 62.1186 10.1512 59.9873 11.9421C61.5674 13.5647 63.248 12.0407 63.248 12.0407Z" fill="#003366"/>
<path d="M59.335 17.0928C59.2789 19.3575 61.5436 19.4948 61.5436 19.4948C61.5436 19.4948 62.1026 17.3655 59.335 17.0928Z" fill="#003366"/>
<path d="M60.9818 22.0817C60.9818 22.0817 61.2313 19.8943 58.4502 20.022C58.721 22.2712 60.9818 22.0817 60.9818 22.0817Z" fill="#003366"/>
<path d="M63.1672 14.2972C63.1672 14.2972 62.2002 12.3187 59.9258 13.9104C61.3608 15.6684 63.1672 14.2972 63.1672 14.2972Z" fill="#003366"/>
<path d="M40.628 19.2202C40.628 19.2202 39.6088 17.2688 37.377 18.932C38.8603 20.6436 40.628 19.2202 40.628 19.2202Z" fill="#003366"/>
<path d="M42.0793 16.1736C42.0793 16.1736 42.8278 14.1023 40.0951 13.582C39.8359 15.8332 42.0793 16.1736 42.0793 16.1736Z" fill="#003366"/>
<path d="M40.4722 17.7286C40.4722 17.7286 41.3966 15.7328 38.72 14.9766C38.2693 17.1987 40.4722 17.7286 40.4722 17.7286Z" fill="#003366"/>
<path d="M33.3217 7.78807C33.3217 7.78807 35.1261 6.5271 33.1921 4.52734C31.6836 6.21766 33.3217 7.78807 33.3217 7.78807Z" fill="#003366"/>
<path d="M61.0268 10.6504C61.0268 10.6504 62.8312 9.38941 60.8972 7.38965C59.3887 9.0761 61.0268 10.6504 61.0268 10.6504Z" fill="#003366"/>
<path d="M19.7365 12.1429C19.7365 12.1429 21.1696 10.472 18.7965 9.01953C17.758 11.0328 19.7365 12.1429 19.7365 12.1429Z" fill="#003366"/>
<path d="M27.6326 4.51758C26.0409 6.1286 27.5978 7.78024 27.5978 7.78024C27.5978 7.78024 29.4583 6.6121 27.6326 4.51758Z" fill="#003366"/>
<path d="M24.5068 14.9671C24.8143 17.2105 27.0733 16.9823 27.0733 16.9823C27.0733 16.9823 27.2821 14.7911 24.5068 14.9671Z" fill="#003366"/>
<path d="M24.1863 12.7502C24.1863 12.7502 25.6523 11.1101 23.3102 9.60742C22.231 11.5898 24.1863 12.7502 24.1863 12.7502Z" fill="#003366"/>
<path d="M22.157 14.4912C21.4241 16.6341 23.5437 17.4464 23.5437 17.4464C23.5437 17.4464 24.7177 15.5878 22.157 14.4912Z" fill="#003366"/>
<path d="M28.7652 11.1777C28.7652 11.1777 30.5213 9.84904 28.5157 7.91504C27.0691 9.66725 28.7652 11.1777 28.7652 11.1777Z" fill="#003366"/>
<path d="M30.4693 13.6281C30.4693 13.6281 32.6509 13.3457 31.8637 10.6787C29.7441 11.4775 30.4693 13.6281 30.4693 13.6281Z" fill="#003366"/>
<path d="M31.7957 9.92924C31.7957 9.92924 32.5693 7.8676 29.8404 7.31641C29.5561 9.56372 31.7957 9.92924 31.7957 9.92924Z" fill="#003366"/>
<path d="M23.6011 7.21767C21.5685 6.21779 20.4932 8.21561 20.4932 8.21561C20.4932 8.21561 22.1912 9.61776 23.6011 7.21767Z" fill="#003366"/>
<path d="M18.7388 15.9729C18.7388 15.9729 20.9397 15.9865 20.5161 13.2363C18.3094 13.745 18.7388 15.9729 18.7388 15.9729Z" fill="#003366"/>
<path d="M24.989 2.88672C23.3973 4.49968 24.9542 6.14938 24.9542 6.14938C24.9542 6.14938 26.8205 4.97931 24.989 2.88672Z" fill="#003366"/>
<path d="M35.6258 7.39355C33.9104 8.875 35.3299 10.6446 35.3299 10.6446C35.3299 10.6446 37.2833 9.62926 35.6258 7.39355Z" fill="#003366"/>
<path d="M32.768 9.4375C32.1124 11.6075 34.261 12.3385 34.261 12.3385C34.261 12.3385 35.3692 10.4296 32.768 9.4375Z" fill="#003366"/>
<path d="M49.3186 46.9339C49.2449 46.7199 49.0984 46.5386 48.9047 46.4214C48.5179 46.2435 48.0402 46.5239 47.7695 46.8585C46.9843 47.8255 46.6265 49.5661 46.7155 51.8869C47.9261 50.6201 48.3303 48.9492 49.0846 47.371C49.1523 47.2318 49.2335 47.0829 49.3186 46.9339Z" fill="#003366"/>
<path d="M26.5363 38.1191C26.8303 38.2178 27.1017 38.3744 27.3342 38.5797C27.5667 38.785 27.7557 39.0348 27.8901 39.3144C27.8149 38.817 27.6899 38.3284 27.5168 37.8561C27.0913 36.7847 25.9696 35.7983 24.1942 34.9222C22.1596 33.9204 20.1328 34.7753 18.3516 35.8989C19.717 35.7055 21.1095 36.1368 22.4942 36.4366C23.2678 36.6048 25.0084 36.7131 25.5364 37.4036C25.136 37.5834 24.6854 37.4461 24.3373 37.7033C24.8517 38.0727 25.8903 37.8755 26.5363 38.1191Z" fill="#003366"/>
<path d="M41.0726 65.2681C40.7458 65.0302 40.4054 64.7846 40.0689 64.5641C39.5293 64.2102 38.746 63.7557 38.1658 63.9008C38.0358 63.9383 37.9153 64.0033 37.8126 64.0914C37.7098 64.1794 37.6271 64.2886 37.5702 64.4113C37.2491 64.9915 37.5199 66.1326 38.3302 67.6005C39.1831 69.1477 41.2931 70.8883 43.3296 71.3834C43.1099 70.7972 42.9347 70.1954 42.8055 69.5829C41.6451 69.0355 39.8407 67.9235 39.9412 67.0377C39.9664 66.825 40.1018 66.4749 40.7245 66.4749H40.7613C41.2061 66.4749 41.8752 66.6877 42.5638 66.972C42.5638 66.7321 42.5638 66.4923 42.5483 66.2506C42.3623 66.1517 42.1815 66.0433 42.0068 65.9257C41.6896 65.7149 41.3763 65.4866 41.0726 65.2681Z" fill="#003366"/>
<path d="M27.9188 14.7731C29.2287 15.2327 30.3513 16.1099 31.1138 17.2699L31.1679 17.3222L31.3613 17.5252C31.5431 17.7186 31.7327 17.9024 31.9183 18.1054C32.0034 18.2002 32.0924 18.2988 32.1813 18.3878C32.8892 19.142 33.6202 19.9214 33.6879 21.0258C33.7101 21.8359 33.4994 22.6353 33.0807 23.3292C32.7827 23.832 32.3884 24.2711 31.9203 24.6211C31.7722 24.7457 31.6314 24.8787 31.4986 25.0195C31.4116 25.1084 31.3246 25.1955 31.2356 25.2806C30.6167 26.3752 29.8683 27.4176 29.2649 28.433C29.031 28.8244 28.8192 29.2286 28.6305 29.6437C28.6641 30.15 28.7398 30.6526 28.8568 31.1464C29.027 31.9767 29.3856 32.7568 29.905 33.4266C30.6535 34.3452 31.1969 35.084 31.3671 36.2464C31.723 38.6774 33.0033 40.3522 35.1713 41.2284C35.8794 41.4893 36.6176 41.6602 37.3683 41.737C37.1401 41.0195 37.1653 40.2865 37.2349 39.4259C36.823 39.6309 36.1577 41.122 35.9604 39.774C35.825 38.8515 36.2563 38.4028 35.7012 37.4532C35.2842 36.7852 34.8323 36.1396 34.3474 35.5192L33.8601 35.0395C32.5063 33.7128 30.9591 32.2082 31.0538 30.1523C31.0848 29.4948 31.3575 28.141 32.1659 27.7251C32.2828 27.6567 32.4154 27.6194 32.5509 27.6171C32.6864 27.6147 32.8202 27.6472 32.9395 27.7116C33.0278 27.7633 33.1074 27.8286 33.1754 27.905C33.3665 27.2936 33.6152 26.7017 33.9181 26.1373C34.3532 25.3251 34.8077 24.2962 35.8018 24.153C36.5947 24.037 38.6119 25.3405 39.1012 24.4006C38.8517 24.331 38.5616 24.3813 38.3276 24.302C38.0046 24.1956 37.8576 23.9152 37.4786 23.8746C37.8093 22.6697 39.6737 22.6503 40.6175 22.2442C41.9539 21.664 43.0698 20.4359 43.7273 19.1653C44.822 17.0514 44.4333 14.9472 44.8278 12.7192C45.1353 10.9786 46.669 9.21868 46.6225 7.43746C45.3809 8.6965 43.9884 10.3655 43.4798 12.0791C42.859 14.1794 43.0446 16.5795 41.8552 18.4787C40.9153 19.9814 39.5538 20.4475 37.935 20.8749C37.2272 21.0683 36.7746 21.1244 36.763 20.3102C36.7849 19.68 36.8823 19.0547 37.0531 18.4477C37.3161 17.3086 37.6855 16.2043 38.0008 15.0806C37.3258 15.0613 36.5541 16.3416 36.3685 16.8812C36.0919 17.6877 36.1847 18.5541 36.0455 19.3838C35.943 19.9988 35.6084 20.9445 35.0514 21.2946C34.7249 20.2805 34.5707 19.2189 34.595 18.1538C34.6293 17.0034 35.0049 15.8893 35.6742 14.953C36.2795 14.1543 36.9487 13.2279 37.2504 12.2686C37.7358 10.7214 37.8306 8.73325 37.5927 7.1377C36.8984 7.80299 37.0628 9.34052 36.968 10.2321C36.888 11.2321 36.436 12.1658 35.7012 12.8488C35.0553 13.429 34.388 13.8526 33.7943 14.4927C33.1522 15.187 33.1116 15.7556 32.7983 16.5582C32.3844 16.5466 31.5895 15.2528 31.2047 14.9433C29.8141 13.8197 27.7563 13.3072 26.6888 11.8489C26.1945 11.1092 25.7778 10.3205 25.4452 9.49524C25.1377 8.799 24.8496 7.58637 24.2191 7.13768C24.1514 8.21299 24.3506 9.12198 24.8341 10.0987C25.4433 11.3248 26.8126 11.9766 27.2245 13.284C27.241 13.3241 27.2434 13.3687 27.2315 13.4104C27.2196 13.4522 26.3493 13.2585 26.3141 13.284C24.8598 13.0906 24.4511 13.8816 23.0703 13.195C22.4069 12.8623 21.7764 11.992 20.9912 12.0346C21.9505 14.6571 25.7991 14.0305 27.9188 14.7731Z" fill="#003366"/>
<path d="M40.5421 66.8778C40.37 66.9145 40.3371 66.9977 40.3274 67.0828C40.2617 67.6456 41.66 68.5797 42.7217 69.1193C42.6388 68.5516 42.5903 67.9794 42.5767 67.4058C41.8804 67.0963 41.1861 66.8604 40.7355 66.8604C40.6706 66.8599 40.6059 66.8657 40.5421 66.8778Z" fill="#003366"/>
<path d="M57.2214 41.1201C56.7765 41.2478 56.3317 41.3464 55.9256 41.4354L55.6587 41.4934C55.1578 41.6056 54.6433 41.7061 54.0999 41.8106C52.1079 42.1974 50.0481 42.5958 48.4913 43.6169C47.0292 44.5704 46.6482 46.1311 46.2788 47.6609C46.0245 48.8074 45.8545 49.9709 45.7701 51.1421C45.7469 51.3993 45.7295 51.6527 45.7102 51.9157C45.6889 52.2155 45.6618 52.523 45.6328 52.8324C45.8398 52.6738 46.0467 52.5133 46.2478 52.347C46.2826 52.3199 46.3136 52.289 46.3465 52.26C46.1995 49.6355 46.5747 47.7421 47.4701 46.632C47.8434 46.1679 48.4816 45.8197 49.0676 46.0847C49.2757 46.1874 49.4467 46.3523 49.5569 46.5566C49.7136 46.3032 49.878 46.0518 50.0249 45.812C50.4988 45.0481 51.1525 44.5588 51.9183 44.0849C53.7653 42.9419 54.9818 43.6421 56.8326 44.0018C56.382 43.4216 55.7883 43.2456 55.2371 42.853C55.7999 42.1258 56.5329 41.6462 57.2214 41.1201Z" fill="#003366"/>
<path d="M45.813 30.3888C44.5385 29.7622 43.4091 31.118 42.0243 30.6828C41.3706 30.4778 40.9239 30.1684 40.6376 29.5727C40.4732 29.2323 40.4829 28.6618 40.1135 28.5438C39.8872 32.2977 43.9448 31.2766 45.902 33.1177C47.6 34.7191 47.6851 37.6452 47.2674 39.819C47.074 40.786 46.7529 41.6003 45.8826 42.1534C45.4649 42.4203 44.9563 42.4802 44.5443 42.7452C44.0009 43.0933 43.8326 43.7431 43.3646 44.1744C41.4847 45.9034 39.2529 44.6347 37.9358 42.8535C37.7715 42.6343 37.6308 42.3983 37.5162 42.1495C36.662 42.0693 35.8216 41.8802 35.0155 41.5867C32.7121 40.6565 31.3506 38.8791 30.9734 36.303C30.8187 35.2393 30.3043 34.5411 29.5945 33.6708C29.0376 32.9562 28.6524 32.1231 28.4689 31.2359C28.4283 31.0638 28.3625 30.7602 28.3103 30.3966C28.0218 31.1632 27.8472 31.9679 27.792 32.7851C28.5704 33.6975 29.227 34.7071 29.7453 35.7886C30.031 36.4287 30.2313 37.1037 30.341 37.7961C30.5344 38.7225 30.7046 39.5966 31.3718 40.4108C32.186 41.4069 33.2826 41.8246 34.443 42.2656C34.7795 42.3932 35.1277 42.5266 35.468 42.6736C37.3034 43.4685 39.1562 45.2052 40.1889 47.0986C41.4529 49.3759 42.1096 51.9401 42.0959 54.5445C42.0959 55.0667 42.0688 55.5618 42.0437 56.0415C42.034 56.2058 42.0262 56.3702 42.0185 56.5346C42.0611 56.436 42.1094 56.3412 42.1578 56.2368C42.765 55.0242 43.8694 54.1365 44.9273 53.3358L45.2038 53.1269C45.2522 52.7072 45.285 52.2798 45.3141 51.864C45.3334 51.6087 45.3527 51.3515 45.3759 51.0904C45.4127 50.6669 45.4572 50.2143 45.5133 49.7501C44.4534 48.1759 44.2678 46.6383 44.9505 45.0486C45.3373 44.1647 46.0103 43.395 46.6679 42.6485C47.6987 41.4881 48.6715 40.3818 48.6019 38.883C48.5286 37.9605 48.3719 37.0465 48.1338 36.1522C47.8437 34.9202 47.544 33.638 47.6755 32.3422C47.7857 31.2321 48.2228 30.1838 49.0931 28.9422C49.3818 28.5084 49.5818 28.0216 49.6814 27.5101C49.7809 26.9986 49.7782 26.4724 49.6733 25.9619C49.4945 26.579 49.199 27.156 48.803 27.6619C48.4162 28.1725 46.6466 30.6113 46.459 28.8919C45.9542 29.2226 45.8324 29.8086 45.813 30.3888Z" fill="#003366"/>
<path d="M32.1016 57.5899C32.2737 57.9264 32.4477 58.2668 32.6102 58.6149C32.7118 58.853 32.7964 59.0979 32.8636 59.3479C32.9377 59.6427 33.0434 59.9286 33.1788 60.2008C33.4457 59.7173 33.4612 58.5994 33.3471 57.6595C33.2407 56.7795 32.8268 55.9189 32.3801 55.2227C32.3431 55.9462 32.263 56.667 32.1402 57.381C32.1299 57.4506 32.117 57.5203 32.1016 57.5899Z" fill="#003366"/>
<path d="M34.5322 61.2341C34.0951 65.3902 37.4197 69.5793 40.9144 71.8846C41.8559 72.5034 42.8649 73.0127 43.9218 73.4028C44.0281 73.4434 44.1481 73.484 44.2757 73.5246C43.9991 72.958 43.738 72.3971 43.5021 71.8227C41.2374 71.3992 38.9146 69.4536 37.9941 67.7884C37.3732 66.6647 36.737 65.1349 37.2321 64.2279C37.3139 64.0575 37.4313 63.9066 37.5765 63.7855C37.7216 63.6644 37.8911 63.5759 38.0734 63.5258C38.7928 63.3479 39.6322 63.814 40.2839 64.2414C40.6282 64.4658 40.9705 64.7153 41.3012 64.9551C41.6029 65.1717 41.9123 65.398 42.2237 65.6049C42.3301 65.6765 42.4345 65.7403 42.539 65.7983C42.5259 65.1857 42.4736 64.5746 42.3823 63.9687C41.3747 63.2473 40.5682 62.1875 39.9087 61.2302C39.1351 60.1065 38.669 58.7353 38.3944 56.782C38.2648 55.8672 38.4427 54.7261 38.6303 53.5174C39.0171 51.0863 39.4039 48.5741 37.4815 47.3653C36.4952 46.7426 35.2865 46.4312 34.1164 46.1295L33.5362 45.9767C32.6098 45.7351 31.7322 45.3346 30.9427 44.7931L31.0142 44.9304C30.9949 45.9728 30.8595 47.023 30.964 48.0596C30.964 48.1099 30.9794 48.1583 30.9852 48.2066C30.8996 48.1887 30.8131 48.1752 30.7261 48.166C29.6953 48.0828 28.7437 48.0364 27.7613 47.7463C26.2566 47.2996 25.4404 46.6265 25.2103 45.0542C24.4986 45.2611 25.1445 46.4583 25.3244 46.9669C23.4639 46.8257 22.3286 43.4664 22.0869 42.041C21.1547 42.0932 22.4427 44.4991 22.6458 45.0348C23.1138 46.2765 23.7231 47.2957 24.9028 48.0577C25.9065 48.7075 27.1153 48.6978 28.1364 49.1872C29.274 49.7756 30.3245 50.5189 31.2579 51.3958C31.558 51.6765 31.8289 51.9868 32.0663 52.3222C32.076 52.3628 32.0857 52.4053 32.0973 52.4459C33.1088 53.2679 33.9675 54.0995 34.4896 55.6254C34.9983 57.1146 34.7894 58.9829 34.6038 60.6326C34.5767 60.8395 34.5535 61.0387 34.5322 61.2341ZM35.5456 48.4077C35.6155 48.3214 35.704 48.2519 35.8044 48.2043C35.9049 48.1568 36.0147 48.1324 36.1258 48.1331C36.3567 48.1462 36.5823 48.2071 36.7884 48.312C36.9945 48.4169 37.1765 48.5634 37.323 48.7423C37.9534 49.4656 37.938 50.3592 37.8703 50.9684C37.7794 51.7961 37.5724 52.2603 37.2185 52.4285C37.1288 52.4724 37.0302 52.4949 36.9304 52.4943C36.7217 52.4827 36.5205 52.4123 36.3502 52.2912C35.7351 51.9044 35.2691 50.8407 35.1414 50.5255C34.7894 49.6629 34.8958 49.0885 35.5456 48.4077Z" fill="#003366"/>
<path d="M36.5493 51.9661C36.7602 52.0996 36.9361 52.1383 37.0503 52.0802C37.1644 52.0222 37.3945 51.7515 37.4854 50.9198C37.5763 50.0882 37.4351 49.4539 37.0309 48.9858C36.8062 48.7223 36.4864 48.5583 36.1413 48.5294C36.0852 48.528 36.0295 48.5395 35.9786 48.563C35.9276 48.5865 35.8827 48.6213 35.8473 48.6648L35.8357 48.6783C35.2884 49.2585 35.2071 49.6666 35.4992 50.3899C35.7332 50.974 36.1413 51.7031 36.5493 51.9661Z" fill="#003366"/>
<path d="M30.7815 61.6948C30.2767 64.4121 32.1605 66.8625 31.9999 69.5585C31.9342 70.6551 31.499 71.9083 30.8976 73.0397C30.9885 73.1132 31.0697 73.1925 31.149 73.2698C31.4004 73.5154 31.6112 73.7262 32.0386 73.7243C32.6188 73.7243 33.2338 73.2756 33.6864 72.5388C34.5025 71.2101 34.3962 69.5585 34.1854 68.1176C33.9688 66.6343 33.6883 65.6305 32.8316 64.561C31.8355 63.3116 31.3985 62.5458 31.2631 61.0256C31.2387 60.7388 31.2297 60.4509 31.236 60.1631C31.0406 60.6596 30.8886 61.1721 30.7815 61.6948Z" fill="#003366"/>
<path d="M50.5926 79.3345H50.5675C50.0859 79.2842 49.585 79.232 49.0918 79.1623C48.418 79.0376 47.7664 78.8141 47.1578 78.499C46.9412 78.4003 46.7169 78.2959 46.4925 78.205C44.8989 77.5474 43.6264 77.3908 42.6033 77.7215C42.5229 77.741 42.4472 77.7766 42.3809 77.8259C42.5255 77.9825 42.6931 78.1162 42.8779 78.2224C43.2144 78.4467 43.5761 78.6537 43.9261 78.8548C44.0983 78.9515 44.2684 79.0482 44.4367 79.1488C44.605 79.2494 44.7345 79.3306 44.8815 79.4234C47.2894 79.642 49.5928 80.5219 52.0741 80.3653C51.9426 79.6806 51.2502 79.4737 50.5926 79.3345Z" fill="#003366"/>
<path d="M39.4865 78.9995C38.8386 78.5256 38.1695 78.0325 37.5022 77.5915C36.4888 76.9223 35.692 76.6729 34.5684 76.6729H34.5568C33.0289 76.6729 31.9729 77.4136 30.8551 78.1949C29.9983 78.7945 29.1145 79.4153 27.9889 79.6938C27.2366 79.8872 26.4823 79.7344 25.7532 79.5932C25.2113 79.4663 24.6561 79.4052 24.0996 79.4114C24.7492 79.5658 25.3773 79.7997 25.9698 80.1076C27.3913 80.8019 29.4181 80.8812 30.9982 80.5969C32.849 80.274 34.3518 79.3708 36.2974 79.746C37.4346 79.9645 38.5698 80.3165 39.765 80.1521C40.1043 80.102 40.4393 80.0257 40.7668 79.9239C40.3317 79.6222 39.9081 79.3108 39.4865 78.9995Z" fill="#003366"/>
<path d="M57.4285 36.6819C56.4015 37.5909 55.1077 37.4362 53.9473 37.9758C54.1194 38.0048 54.2896 38.0415 54.4501 38.0763C54.657 38.1228 54.8524 38.1653 55.0303 38.1905C55.7784 38.3012 56.5421 38.1611 57.2022 37.792C58.204 37.1848 58.5057 36.0514 58.351 34.9336C58.2733 35.6114 57.9441 36.2353 57.4285 36.6819Z" fill="#003366"/>
<path d="M69.1896 31.5551C68.2013 32.0657 67.7043 32.8141 66.8823 33.4891C66.188 34.0538 65.0238 34.108 64.1573 34.2376C63.347 34.3575 62.6681 34.6398 61.9506 34.8352C61.7572 33.9378 62.6875 33.4814 63.2329 32.9824C63.7943 32.4843 64.1977 31.8329 64.3933 31.1083C64.664 30.2245 64.5441 29.3078 64.7182 28.4181C64.8497 27.7374 64.958 27.0431 65.105 26.3642C65.2674 25.61 65.8651 24.8789 65.983 24.1769C66.2248 22.7283 65.1031 24.7145 64.8942 25.0897C64.3488 26.0567 63.8653 26.927 63.6777 28.0546C63.4998 29.126 63.7144 30.3077 63.2599 31.3308C62.8731 32.2011 62.0067 32.2378 61.295 32.7522C60.8424 33.0791 60.0418 34.1409 59.5795 33.6341C59.1734 33.1893 59.4886 31.8935 59.5795 31.383C59.6731 30.6503 59.8684 29.9343 60.1597 29.2556C60.268 29.0254 61.1616 27.5285 60.299 28.0952C59.8909 28.364 59.566 29.565 59.3088 30.0098C58.9007 30.7196 58.5352 31.4623 58.4404 32.2842C58.4009 32.7434 58.3912 33.2047 58.4114 33.6651C59.0651 35.2394 58.951 37.2004 57.4173 38.1307C56.6813 38.5457 55.8281 38.7042 54.9921 38.5813C54.7987 38.5542 54.5801 38.5078 54.3751 38.4634C54.0487 38.3782 53.7142 38.3276 53.3772 38.3125C52.9188 38.6084 52.3909 38.9662 51.9112 38.9797C51.0429 39.0068 50.7199 37.5872 50.4878 36.9858C50.1397 36.0826 49.4434 35.0634 49.4048 34.0848C49.3564 32.8973 49.7451 31.9303 50.424 30.9265C51.0196 30.0446 51.1221 29.3929 51.3349 28.3698C51.7217 26.4996 53.0871 25.0491 54.5163 23.8848C56.2569 22.4634 57.6939 21.6279 58.0265 19.2432C58.1305 18.2795 58.2991 17.3239 58.5313 16.3828C58.7247 15.6866 59.0825 15.06 59.0032 14.3173C58.5603 14.3637 58.3959 15.0909 58.1 15.3752C57.5875 14.033 58.1987 12.1222 57.5198 10.8555C56.7907 11.7122 57.1562 12.9345 57.3032 13.9634C57.4966 15.265 57.69 16.9108 57.3767 18.1931C57.0446 19.4157 56.2571 20.4647 55.1758 21.125C54.379 21.6337 53.3405 21.7381 52.6152 22.3222C52.269 22.6026 51.7024 23.9622 51.3291 23.9777C50.8649 23.997 50.6773 22.7883 50.6309 22.4672C50.3776 20.7653 50.9674 19.6668 51.7565 18.224C52.1046 17.5839 53.5474 15.2843 52.6461 14.7273C52.2961 15.1238 52.2593 15.822 52.006 16.3132C51.7352 16.8373 51.2981 17.3228 50.9674 17.8101C50.6367 18.2975 50.1764 18.7771 50.0004 19.3573C49.867 19.8312 49.954 20.4172 49.7123 20.8253C48.7994 20.2605 49.0315 18.1176 49.192 17.2531C49.4125 16.0695 49.8747 14.6094 49.2771 13.4683C49.4454 14.913 48.4552 16.6401 48.2734 18.0983C48.1179 19.3292 48.2113 20.5788 48.548 21.7729C48.8497 22.8289 49.6233 23.7804 49.7645 24.8673C50.2712 26.1708 50.3602 27.8553 49.4202 29.1956C48.5886 30.3792 48.1728 31.3714 48.0664 32.4099C47.9427 33.6516 48.2347 34.8932 48.5171 36.0961C48.7614 37.0132 48.9226 37.9505 48.9986 38.8966C49.0818 40.5521 48.0103 41.7647 46.9737 42.9386C46.3355 43.66 45.676 44.4065 45.3201 45.2343C44.7399 46.5649 44.8463 47.8607 45.6102 49.1816C45.6876 48.6517 45.7843 48.114 45.91 47.5938C46.2968 46.0002 46.6972 44.3543 48.285 43.3158C49.9115 42.254 52.0099 41.8479 54.0386 41.4553C54.5801 41.3508 55.0907 41.2502 55.5858 41.14L55.8547 41.082C56.6129 40.9342 57.3537 40.708 58.0652 40.407C58.2757 40.1993 58.4643 39.9706 58.628 39.7243C59.7033 38.1017 60.7825 37.2314 62.7474 36.9123C63.492 36.7924 64.488 36.6686 65.1417 36.3147C66.0468 35.8273 66.7044 34.7365 67.3755 33.9939C68.5359 32.7136 70.2668 31.9129 71.5781 30.7506C70.7416 30.8794 69.9336 31.1516 69.1896 31.5551Z" fill="#003366"/>
<path d="M56.6579 79.4447C56.957 79.4318 57.2552 79.4034 57.5514 79.3596C57.2907 79.2061 57.0401 79.0362 56.801 78.8509C56.5301 78.6275 56.2719 78.3893 56.0274 78.1373C55.5864 77.7021 55.13 77.2534 54.6407 77.0523C53.9058 76.7544 53.1062 76.6518 52.3199 76.7545C51.6082 76.8531 50.9796 77.1413 50.3143 77.4546C50.0571 77.5745 49.7922 77.6983 49.5195 77.8104L49.2545 77.9245C48.9426 78.0744 48.615 78.1892 48.2778 78.2669C48.1541 78.292 48.0071 78.3055 47.8639 78.321L47.7344 78.3346C48.1813 78.5471 48.6559 78.6955 49.1443 78.7755C49.6336 78.8432 50.1287 78.8954 50.6083 78.9457L50.7127 78.9573C51.1759 78.9939 51.6409 79.0036 52.1052 78.9863C52.5133 78.9863 52.9349 78.9728 53.3333 78.9979C53.7568 79.0342 54.1766 79.1054 54.5885 79.2107C54.896 79.2803 55.2151 79.3518 55.5265 79.3905C55.9015 79.4396 56.2799 79.4577 56.6579 79.4447Z" fill="#003366"/>
<path d="M17.0107 36.334C19.1381 34.8584 21.6968 33.257 24.3715 34.5741C26.2417 35.4947 27.4234 36.5506 27.8818 37.713C28.1849 38.5618 28.3615 39.4507 28.4059 40.3509C28.843 41.2116 29.3419 42.018 29.8467 42.8651C30.0478 43.2017 30.2412 43.5349 30.4269 43.865C30.4501 43.8902 30.4695 43.9192 30.4946 43.9424C31.2411 44.6734 32.3861 45.2826 33.6335 45.6153L34.2137 45.7661C35.4108 46.0756 36.6505 46.3947 37.6949 47.0503C39.8223 48.3945 39.3968 51.1543 39.0177 53.5892C38.8359 54.7689 38.6619 55.881 38.7837 56.7397C39.0487 58.6292 39.4974 59.9482 40.2342 61.0215C40.799 61.8396 41.472 62.7351 42.2804 63.4081C42.2263 63.1509 42.1721 62.8995 42.1141 62.6519C42.1667 62.4345 42.2313 62.2201 42.3075 62.0098C42.733 60.8746 43.3673 60.13 44.3092 59.4067C44.9203 58.9386 45.6108 58.575 46.1736 58.0529C46.3031 57.9329 46.775 57.6351 46.8098 57.4533C46.864 57.1748 46.601 57.2793 46.4114 57.3682C46.0385 57.5665 45.6781 57.7873 45.3323 58.0296C44.7521 58.3855 44.2144 58.7491 43.6768 59.1456C43.816 58.4687 44.1235 57.4378 43.9804 57.0781C43.6439 57.6409 43.2803 58.6253 43.1372 58.9232C42.9979 59.2152 42.8803 59.5171 42.7852 59.8263C42.3984 60.1087 42.0116 60.3601 41.6499 60.6251C41.4487 59.685 41.4408 58.7137 41.6267 57.7705C41.6074 57.1903 41.6267 56.6101 41.6673 56.0299C41.6925 55.5561 41.7195 55.0629 41.7195 54.5542C41.7331 52.0146 41.0923 49.5142 39.859 47.294C38.865 45.4702 37.0857 43.8012 35.3257 43.0392C34.9931 42.8941 34.6488 42.7626 34.3162 42.6369C33.1558 42.196 31.9625 41.7415 31.0825 40.6662C30.3553 39.7765 30.16 38.8134 29.9724 37.8831C29.8664 37.2233 29.676 36.5798 29.4058 35.9685C28.9006 34.9165 28.2616 33.9343 27.5046 33.0462C26.4661 32.6323 25.4352 32.1624 24.3599 32.1527C24.1152 32.1498 23.8706 32.1602 23.627 32.1836C23.5883 31.7446 23.6792 31.3075 23.861 30.6364C23.3349 30.9614 22.9056 31.6982 22.4356 32.377H22.335C21.8631 32.4235 20.8265 32.8547 20.4242 32.3268C20.08 31.8761 20.401 30.9865 20.5944 30.5281C20.8401 29.9479 21.3448 29.7043 21.7548 29.2536C22.1181 28.8673 22.3625 28.3846 22.4588 27.8631C22.5196 27.4357 22.528 27.0025 22.484 26.5731C22.4743 26.3468 22.4704 26.1186 22.4685 25.8904C22.6916 25.2433 22.9772 24.6196 23.3214 24.028C23.7956 23.2221 24.0447 22.3037 24.0428 21.3687C23.9325 22.0862 23.4239 22.7225 22.9887 23.2853C22.7444 23.6173 22.5622 23.9908 22.4511 24.3877C22.4352 23.784 22.3162 23.1874 22.0991 22.6239C21.5189 21.1966 21.8013 19.6861 21.3719 18.2627C19.933 20.0033 21.3526 22.4672 21.5498 24.3529C21.6562 25.376 21.6388 26.4803 21.2307 27.4473C20.9252 27.0875 20.4204 26.664 20.2985 26.4242C20.1079 26.0169 19.9457 25.5968 19.8131 25.1671C19.7145 24.8731 19.6197 24.2446 19.407 24.0782C18.8654 24.525 19.5559 25.931 19.817 26.399C20.2308 27.1436 20.5035 27.7238 20.5906 28.4839C20.1574 29.0254 19.6448 29.507 19.2561 30.0891C18.8132 30.7505 18.643 32.0231 18.0957 32.5298C17.6509 32.936 13.8177 33.0791 13.2607 32.9747C12.5423 32.8408 11.8814 32.4922 11.3654 31.9748C10.6691 31.2959 10.7446 30.5939 10.379 29.7487C9.79884 31.7485 11.0521 33.6303 12.8932 34.3497C12.3846 35.2684 10.6962 35.3167 9.79884 35.6919C8.51273 36.2296 7.49738 37.1869 6.014 36.6725C5.047 36.3398 4.6602 35.4772 4.24439 34.6069C3.97169 34.0267 3.8015 32.9824 3.08398 32.847C3.63131 33.93 3.84598 34.9744 4.21344 36.1193C4.93676 38.3744 7.8629 38.7844 9.91681 38.4537C10.5724 38.3492 11.1178 38.0301 11.6806 37.7052C12.5836 37.1969 13.529 36.7679 14.5062 36.423C13.7945 38.0243 12.959 39.7108 11.1739 40.3664C11.8411 40.9892 13.4367 39.2892 13.9453 38.9449C13.9744 41.3566 10.3636 42.6002 10.6575 44.9848C10.9264 44.2363 11.0695 43.5556 11.7174 43.0141C12.3324 42.4996 13.0364 42.1089 13.6166 41.5345C15.1406 40.0434 15.0806 37.3803 17.0107 36.334Z" fill="#003366"/>
<path d="M37.3709 74.9575C37.4301 74.9613 37.4894 74.9521 37.5446 74.9303C37.5997 74.9086 37.6494 74.8749 37.69 74.8318C38.1291 74.416 37.6281 73.5186 37.3032 72.9248C37.2297 72.7933 37.1621 72.6734 37.1098 72.5748C37.0576 72.4761 37.0363 72.4007 36.9957 72.2905C36.901 72.0371 36.7424 71.6136 36.5567 71.5652C36.5115 71.5621 36.4662 71.5684 36.4236 71.5837C36.381 71.599 36.342 71.623 36.3092 71.6542C35.9417 72.3737 35.8005 73.3948 36.3092 74.0678C36.723 74.6384 37.0886 74.9323 37.3709 74.9575Z" fill="#003366"/>
<path d="M32.7456 28.0485C32.6813 28.0143 32.6089 27.998 32.536 28.0014C32.4632 28.0048 32.3927 28.0278 32.3318 28.0678C31.7322 28.3753 31.4615 29.5203 31.4305 30.1682C31.3589 31.7328 32.3221 32.9493 33.4322 34.0806C32.5774 32.3207 32.5329 30.2591 33.0338 28.356C32.9653 28.2308 32.8662 28.125 32.7456 28.0485Z" fill="#003366"/>
<path d="M32.748 23.1361C33.1294 22.5082 33.3221 21.7838 33.303 21.0493C33.245 20.0823 32.5604 19.3571 31.9009 18.6531L31.7887 18.5332C32.0695 19.2095 32.2644 19.9184 32.3689 20.6432C32.5623 21.9274 32.2645 23.1187 31.752 24.2482C32.1534 23.9461 32.4918 23.5683 32.748 23.1361Z" fill="#003366"/>
<path d="M20.8638 79.8176C21.4439 79.5823 22.0515 79.4217 22.6721 79.3399C23.1225 79.1744 23.5926 79.0684 24.0704 79.0247C24.6641 79.0151 25.2567 79.0801 25.8342 79.2181C26.5537 79.3574 27.2325 79.4889 27.9017 79.3225C28.9576 79.0614 29.8144 78.4619 30.6421 77.8817C31.7581 77.1081 32.9146 76.292 34.5643 76.29H34.574C35.7692 76.29 36.653 76.5666 37.7225 77.2725C38.3994 77.7192 39.0763 78.2144 39.7223 78.6921C40.2232 79.0614 40.728 79.4308 41.2424 79.7848C41.61 79.666 41.9846 79.5704 42.3641 79.4985C42.9231 79.4048 43.4897 79.364 44.0564 79.3767L43.7315 79.1833C43.3756 78.9802 43.0082 78.7694 42.66 78.5393C42.3119 78.3091 41.9483 78.0654 41.9889 77.7657C42.0237 77.522 42.2868 77.4098 42.4802 77.346C43.5942 76.9863 44.9538 77.1526 46.6363 77.8411C46.8143 77.9146 46.9883 77.9919 47.1605 78.0712C47.3749 77.9882 47.6017 77.9418 47.8316 77.9339C47.965 77.9204 48.1042 77.9049 48.2184 77.8856C48.5272 77.8117 48.8273 77.7054 49.1138 77.5684L49.3865 77.4504C49.6495 77.3421 49.9125 77.2203 50.1601 77.1023C50.8235 76.7948 51.5139 76.4757 52.2778 76.3693C53.1297 76.2586 53.9958 76.3698 54.792 76.6923C55.351 76.9224 55.8344 77.3982 56.3025 77.8527C56.539 78.0947 56.7889 78.3232 57.0509 78.5373C57.4043 78.8135 57.7846 79.0532 58.1862 79.2529C59.3466 79.0595 60.4064 78.8139 61.6809 79.2529C60.683 78.3014 59.6348 78.4658 58.2636 78.2859C56.7067 78.0732 56.2793 76.9534 55.1692 75.9651C53.3744 74.3676 51.8814 75.9651 49.7714 75.9651C47.584 75.9651 46.1393 77.286 44.9364 74.855C44.7932 74.5668 44.6521 74.2845 44.5128 74.0021C44.244 73.9189 43.9926 73.8377 43.7856 73.7623C42.6981 73.3625 41.6598 72.8395 40.6912 72.2035C37.1036 69.8324 33.6882 65.508 34.1446 61.1893C34.164 60.9959 34.1872 60.7929 34.2104 60.5898C34.3902 58.9807 34.5972 57.1569 34.1117 55.7548C33.7509 54.7027 33.0991 53.7746 32.2319 53.0781C32.323 53.5578 32.3735 54.0443 32.3827 54.5325C32.9629 55.339 33.5876 56.4472 33.7269 57.6076C33.7772 58.0137 33.988 60.0773 33.2937 60.6594L33.1563 60.7735L33.0306 60.6459C32.7599 60.3654 32.6226 59.9013 32.4891 59.4526C32.428 59.2202 32.3498 58.9927 32.2551 58.7718C32.1603 58.5668 32.0617 58.3638 31.9592 58.1607C31.8838 58.4256 31.7948 58.6848 31.7 58.9343C31.6212 59.6102 31.605 60.2919 31.6517 60.9708C31.7832 62.4561 32.2319 63.1562 33.1351 64.2973C34.0382 65.4383 34.3419 66.5272 34.5643 68.0376C34.7867 69.5481 34.8931 71.2848 34.0131 72.7179C33.7617 73.1279 33.0654 74.0717 32.0385 74.0891H32.0211C31.4544 74.0891 31.1469 73.7894 30.8742 73.5244C30.8162 73.4664 30.7601 73.4122 30.7021 73.3619L30.6866 73.3929C28.977 73.3929 26.925 72.5129 25.7143 72.0391C23.1053 71.0334 21.1791 73.3813 19.8137 75.3984C19.1725 76.3943 18.3766 77.2815 17.4561 78.0268C18.0625 77.987 18.6567 77.8383 19.2103 77.5877C19.7499 77.32 20.2509 76.9804 20.6994 76.5782C21.2023 75.8916 21.68 75.1973 22.3356 74.619C23.6894 73.4296 25.517 74.2806 26.7393 75.7524C26.4103 75.5849 26.0674 75.4464 25.7143 75.3385C24.9929 75.1606 24.6274 75.3385 23.9292 75.5087C22.6199 75.8104 21.5659 76.5898 20.4674 77.2493C19.4824 78.0386 18.2478 78.4502 16.9862 78.4097C16.8527 78.4097 16.7173 78.4097 16.5819 78.3962C15.0928 78.4754 14.1358 78.3652 13.9424 79.8176C15.5824 78.9183 16.112 79.8118 17.7984 79.63C19.394 79.456 20.6762 78.5006 22.3453 78.4696C21.7419 78.7559 21.1094 79.2104 20.8638 79.8176ZM35.9858 71.4376L36.0032 71.4047L36.0341 71.3796C36.114 71.2985 36.2126 71.2385 36.3212 71.2047C36.4299 71.171 36.5452 71.1646 36.6569 71.1862C37.0437 71.2887 37.2139 71.7664 37.357 72.1532C37.3937 72.2499 37.4286 72.3466 37.4576 72.4027C37.504 72.4974 37.5659 72.6096 37.6374 72.7353C38.0242 73.4316 38.616 74.4875 37.9585 75.1103C37.8871 75.1831 37.8019 75.2412 37.708 75.281C37.6141 75.3208 37.5132 75.3417 37.4111 75.3424H37.3435C36.8077 75.2979 36.3223 74.7254 36.0013 74.2999C35.3688 73.478 35.541 72.2673 35.98 71.4376H35.9858Z" fill="#003366"/>
</g>
<defs>
<clipPath id="clip0_13875_96842">
<rect width="76.3235" height="80" fill="white" transform="translate(0 0.748047)"/>
</clipPath>
</defs>
</svg>
